<svg width="122" height="39" viewBox="0 0 122 39" fill="none" xmlns="http://www.w3.org/2000/svg">
<path d="M7.83389 38.9973C7.51874 38.9973 7.21076 38.9929 6.8983 38.9858C6.25041 38.9775 5.60404 38.9219 4.96445 38.8195C4.36808 38.7185 3.79026 38.5303 3.24994 38.2612C2.71518 37.9943 2.22729 37.6442 1.80493 37.2243C1.37641 36.8097 1.01953 36.3286 0.748472 35.7999C0.474971 35.2686 0.285647 34.699 0.187118 34.111C0.0808414 33.4792 0.0233761 32.8403 0.0152201 32.1999C0.00895301 31.9841 0 31.2683 0 31.2683V7.71666C0 7.71666 0.00895301 7.01152 0.0152201 6.8045C0.0232778 6.16483 0.0805771 5.52694 0.186223 4.89524C0.285039 4.30544 0.474652 3.73406 0.748472 3.20097C1.29968 2.13928 2.17478 1.27575 3.24994 0.732561C3.78852 0.464936 4.36462 0.278548 4.95907 0.179601C5.601 0.0760872 6.2501 0.0203489 6.90009 0.0115016L7.83389 0H114.161L115.105 0.0123863C115.749 0.0203489 116.392 0.0752025 117.027 0.178716C117.629 0.279038 118.211 0.467187 118.756 0.736984C119.83 1.28131 120.704 2.14422 121.255 3.20451C121.525 3.73358 121.712 4.3007 121.809 4.88551C121.917 5.52163 121.977 6.16483 121.988 6.80981C121.992 7.09823 121.992 7.40877 121.992 7.71666C122 8.09975 122 8.46338 122 8.83054V30.1677C122 30.5393 122 30.9003 121.992 31.2648C121.992 31.5957 121.992 31.9 121.987 32.2114C121.976 32.8458 121.917 33.4766 121.811 34.1021C121.715 34.6945 121.526 35.2687 121.252 35.8043C120.979 36.327 120.625 36.8038 120.201 37.2173C119.779 37.6392 119.29 37.9911 118.754 38.2595C118.21 38.5309 117.628 38.7199 117.027 38.8204C116.388 38.923 115.742 38.9797 115.094 38.9867C114.791 38.9938 114.473 38.9973 114.165 38.9973L113.044 39L7.83299 38.9973H7.83389Z" fill="black"/>
<path d="M24.7896 19.3859C24.8024 18.4946 25.0403 17.621 25.4812 16.8463C25.9221 16.0716 26.5518 15.4209 27.3115 14.9548C26.8276 14.2654 26.1897 13.6984 25.4483 13.2988C24.7069 12.8992 23.8825 12.678 23.0406 12.6528C21.2436 12.4649 19.5018 13.725 18.5854 13.725C17.6522 13.725 16.2425 12.6715 14.7242 12.7027C13.7423 12.7341 12.7852 13.0187 11.9458 13.5291C11.1076 14.0388 10.4157 14.7571 9.93767 15.6137C7.86812 19.1865 9.41226 24.4387 11.3945 27.3266C12.3857 28.7408 13.5451 30.3214 15.0626 30.2653C16.5461 30.203 17.1009 29.3214 18.8926 29.3214C20.6674 29.3214 21.1884 30.2653 22.7352 30.2297C24.3292 30.203 25.3319 28.8084 26.2883 27.3809C27.0009 26.3736 27.5494 25.2597 27.9135 24.0807C26.9886 23.6908 26.1989 23.0373 25.6427 22.2017C25.0876 21.3675 24.7908 20.388 24.7896 19.3859ZM21.8669 10.7533C22.7353 9.71481 23.1635 8.3781 23.0602 7.02832C21.7341 7.16681 20.5087 7.79909 19.6273 8.79955C19.1973 9.28749 18.8678 9.8555 18.6576 10.471C18.4475 11.0865 18.3609 11.7375 18.4029 12.3865C19.0661 12.3933 19.7222 12.2499 20.3221 11.967C20.922 11.6842 21.4502 11.2693 21.8669 10.7533V10.7533ZM42.598 26.8262H37.727L36.5577 30.2707H34.4944L39.1072 17.5274H41.2516L45.8653 30.2707H43.7682L42.5989 26.8262H42.598ZM38.2319 25.2366H42.0931L40.1892 19.6469H40.1358L38.2319 25.2366ZM55.8301 25.6266C55.8301 28.5128 54.2807 30.3677 51.9422 30.3677C51.3504 30.3983 50.7619 30.2623 50.2437 29.975C49.7254 29.6876 49.2982 29.2606 49.0106 28.7425H48.9661V33.3447H47.0533V20.98H48.9055V22.525H48.9403C49.24 22.0086 49.6741 21.5832 50.1965 21.294C50.7188 21.0049 51.3098 20.8628 51.9066 20.8829C54.2709 20.8829 55.8301 22.7467 55.8301 25.6258V25.6266ZM53.8639 25.6266C53.8639 23.745 52.8897 22.5081 51.4016 22.5081C49.9412 22.5081 48.9581 23.7708 48.9581 25.6258C48.9581 27.4976 49.9412 28.7514 51.4016 28.7514C52.8888 28.7514 53.8639 27.5243 53.8639 25.6258V25.6266ZM66.0844 25.6266C66.0844 28.5128 64.5349 30.3677 62.1964 30.3677C61.6046 30.3983 61.0161 30.2623 60.4979 29.975C59.9796 29.6876 59.5524 29.2606 59.2648 28.7425H59.2203V33.3447H57.3084V20.98H59.1589V22.525H59.1945C59.4942 22.0086 59.9284 21.5832 60.4507 21.294C60.9731 21.0049 61.5641 20.8628 62.1608 20.8829C64.526 20.8829 66.0844 22.7467 66.0844 25.6258V25.6266ZM64.119 25.6266C64.119 23.745 63.1439 22.5081 61.6568 22.5081C60.1954 22.5081 59.2123 23.7708 59.2123 25.6258C59.2123 27.4976 60.1954 28.7514 61.6568 28.7514C63.1439 28.7514 64.119 27.5243 64.119 25.6258V25.6266ZM72.8612 26.7202C73.0036 27.9847 74.2343 28.8129 75.9165 28.8129C77.5283 28.8129 78.6887 27.9847 78.6887 26.8449C78.6887 25.8555 77.9887 25.2633 76.3333 24.8572L74.6769 24.4592C72.3304 23.8946 71.2404 22.8002 71.2404 21.0236C71.2404 18.8249 73.1622 17.3146 75.8889 17.3146C78.5907 17.3146 80.4421 18.8249 80.5044 21.0236H78.5738C78.458 19.7519 77.4037 18.9843 75.8631 18.9843C74.3225 18.9843 73.269 19.7608 73.269 20.8918C73.269 21.793 73.9423 22.3228 75.5888 22.7289L76.9967 23.0735C79.6193 23.6916 80.7075 24.7415 80.7075 26.6062C80.7075 28.9901 78.8035 30.4835 75.7749 30.4835C72.9413 30.4835 71.0276 29.0248 70.9038 26.7202H72.8612V26.7202ZM84.8368 18.7813V20.98H86.6089V22.4903H84.8368V27.6125C84.8368 28.4077 85.1912 28.7791 85.9704 28.7791C86.1805 28.7746 86.3907 28.7604 86.5991 28.7345V30.2359C86.2491 30.3011 85.8935 30.3307 85.5376 30.3241C83.6506 30.3241 82.915 29.617 82.915 27.8155V22.4903H81.5615V20.98H82.9159V18.7804H84.8376L84.8368 18.7813ZM87.6338 25.6266C87.6338 22.7022 89.3597 20.866 92.0526 20.866C94.7535 20.866 96.4722 22.7031 96.4722 25.6258C96.4722 28.5573 94.7624 30.3864 92.0526 30.3864C89.3427 30.3864 87.6338 28.5573 87.6338 25.6258V25.6266ZM94.5237 25.6266C94.5237 23.6203 93.6021 22.4368 92.0526 22.4368C90.5031 22.4368 89.5814 23.6301 89.5814 25.6258C89.5814 27.6392 90.5031 28.8138 92.0526 28.8138C93.6021 28.8138 94.5237 27.6392 94.5237 25.6258V25.6266ZM98.0493 20.98H99.873V22.5615H99.9167C100.04 22.0667 100.331 21.6297 100.739 21.324C101.147 21.0183 101.648 20.8625 102.158 20.8829C102.379 20.882 102.598 20.906 102.814 20.9541V22.7378C102.535 22.6529 102.245 22.6138 101.954 22.6221C101.676 22.611 101.4 22.6598 101.143 22.7654C100.885 22.871 100.654 23.0308 100.464 23.2338C100.275 23.4368 100.132 23.6783 100.045 23.9418C99.9584 24.2053 99.9297 24.4845 99.9612 24.7602V30.2707H98.0484L98.0493 20.98V20.98ZM111.631 27.5412C111.374 29.2288 109.727 30.3864 107.62 30.3864C104.909 30.3864 103.227 28.5751 103.227 25.6703C103.227 22.7556 104.918 20.866 107.539 20.866C110.117 20.866 111.737 22.6319 111.737 25.4485V26.1022H105.157V26.2179C105.127 26.5604 105.17 26.9053 105.284 27.2298C105.397 27.5543 105.578 27.8508 105.816 28.0997C106.053 28.3486 106.34 28.5442 106.659 28.6733C106.977 28.8024 107.32 28.8621 107.663 28.8485C108.115 28.8915 108.568 28.7876 108.956 28.5522C109.344 28.3168 109.645 27.9626 109.816 27.5421H111.631V27.5412ZM105.166 24.7691H109.824C109.85 24.3053 109.731 23.8449 109.483 23.4522C109.234 23.0596 108.87 22.7541 108.44 22.5784C108.154 22.4612 107.847 22.4042 107.539 22.411C107.227 22.4093 106.919 22.469 106.631 22.5867C106.343 22.7043 106.081 22.8776 105.86 23.0967C105.64 23.3158 105.465 23.5764 105.346 23.8635C105.227 24.1505 105.166 24.4583 105.166 24.7691V24.7691ZM36.8738 10.5236H37.6949C37.836 10.541 37.9791 10.5291 38.1154 10.4887C38.2517 10.4482 38.3782 10.38 38.4868 10.2884C38.5955 10.1967 38.6841 10.0836 38.7471 9.95616C38.81 9.82868 38.8459 9.68958 38.8526 9.54758C38.8526 8.98299 38.426 8.61877 37.7038 8.61877C37.4859 8.58863 37.2639 8.62463 37.0667 8.72212C36.8695 8.81962 36.7061 8.9741 36.5978 9.16555C36.5265 9.29289 36.4811 9.4327 36.4642 9.57785H35.563C35.5785 9.3146 35.6481 9.05737 35.7677 8.8223C35.8872 8.58724 36.054 8.3794 36.2576 8.21181C36.4613 8.0437 36.6975 7.91925 36.9513 7.84618C37.2051 7.77312 37.4713 7.75298 37.7332 7.78704C38.9416 7.78704 39.7929 8.46204 39.7929 9.43359C39.7958 9.75953 39.6865 10.0766 39.4833 10.3314C39.2802 10.5863 38.9955 10.7636 38.6771 10.8335V10.9056C39.0556 10.9234 39.4109 11.0873 39.6665 11.3651C39.9229 11.6429 40.0583 12.0098 40.0432 12.3865C40.0013 12.7951 39.8372 13.1815 39.5724 13.4954C39.3076 13.8093 38.9543 14.0361 38.5587 14.1462C38.2958 14.2198 38.021 14.2404 37.7501 14.2067C37.3415 14.2619 36.9259 14.1924 36.5574 14.0075C36.189 13.8225 35.8849 13.5307 35.685 13.1702C35.5533 12.9308 35.4712 12.6673 35.4437 12.3954H36.3591C36.4143 12.9805 36.954 13.359 37.7501 13.359C38.5453 13.359 39.0654 12.9342 39.0654 12.3358C39.0654 11.7293 38.5756 11.3562 37.7207 11.3562H36.8738V10.5245V10.5236ZM41.0833 12.7516C41.0833 11.9199 41.7049 11.4408 42.8064 11.3722L44.062 11.301V10.9012C44.062 10.4132 43.7397 10.138 43.1128 10.138C42.6025 10.138 42.2499 10.325 42.1474 10.6518H41.2623C41.3558 9.85747 42.1056 9.34899 43.1564 9.34899C44.3176 9.34899 44.973 9.92515 44.973 10.9012V14.0589H44.0914V13.4088H44.0202C43.8731 13.6423 43.6666 13.8325 43.4219 13.96C43.1772 14.0875 42.903 14.1478 42.6274 14.1346C42.3347 14.1648 42.0399 14.1022 41.7847 13.9556C41.5295 13.8091 41.3268 13.586 41.2053 13.318C41.1251 13.1399 41.0842 12.9467 41.0833 12.7516V12.7516ZM44.062 12.3571V11.9707L42.9302 12.0428C42.2917 12.0855 42.0023 12.3019 42.0023 12.7089C42.0023 13.1248 42.3647 13.3679 42.8616 13.3679C43.081 13.3898 43.3019 13.345 43.4954 13.2393C43.689 13.1337 43.8461 12.9721 43.9463 12.7757C44.0126 12.6454 44.052 12.503 44.062 12.3571V12.3571ZM47.4015 10.2057V14.0589H46.486V9.43715H49.5369V10.2057H47.4015V10.2057ZM55.0794 11.7462C55.0794 13.2147 54.335 14.1346 53.1648 14.1346C52.8781 14.154 52.5917 14.0913 52.3393 13.954C52.0868 13.8166 51.8786 13.6103 51.7391 13.359H51.667V15.5941H50.7525V9.43804H51.6323V10.2012H51.7008C51.8423 9.94065 52.0531 9.7243 52.3099 9.5761C52.5668 9.42789 52.8595 9.35361 53.1559 9.36146C54.335 9.36146 55.0794 10.2778 55.0794 11.7462V11.7462ZM54.1391 11.7462C54.1391 10.7702 53.676 10.1807 52.9013 10.1807C52.131 10.1807 51.6501 10.7827 51.6501 11.7498C51.6501 12.7133 52.131 13.3162 52.8968 13.3162C53.676 13.3162 54.1391 12.7267 54.1391 11.7462V11.7462ZM56.2977 15.7135V14.9289C56.3965 14.9414 56.4962 14.9467 56.596 14.9459C56.7904 14.96 56.9833 14.902 57.1378 14.7832C57.2923 14.6643 57.3977 14.4927 57.434 14.3011L57.5025 14.0758L55.8257 9.43715H56.8213L57.9825 13.1069H58.0555L59.2132 9.43715H60.183L58.4554 14.2486C58.0591 15.3733 57.621 15.734 56.6761 15.734C56.6004 15.734 56.3823 15.7251 56.2977 15.7126V15.7135ZM60.8954 12.7472H61.8055C61.8945 13.155 62.2774 13.367 62.8135 13.367C63.4226 13.367 63.7967 13.0998 63.7967 12.684C63.7967 12.2387 63.4609 12.025 62.8135 12.025H62.1198V11.317H62.802C63.3541 11.317 63.6355 11.1051 63.6355 10.7195C63.6355 10.3793 63.3639 10.1211 62.802 10.1211C62.2899 10.1211 61.9159 10.3375 61.8571 10.7017H60.9755C61.0432 10.2826 61.272 9.90647 61.613 9.6536C61.954 9.40074 62.3804 9.29111 62.8011 9.3481C63.9026 9.3481 64.5331 9.84501 64.5331 10.626C64.5384 10.8437 64.4685 11.0567 64.3352 11.2289C64.2018 11.4012 64.0132 11.5222 63.8011 11.5717V11.6438C64.0534 11.6763 64.285 11.8 64.4522 11.9917C64.6194 12.1833 64.7106 12.4296 64.7085 12.684C64.7085 13.562 63.9587 14.1435 62.8135 14.1435C61.8019 14.1435 60.9791 13.6804 60.8954 12.7472V12.7472ZM66.0256 14.0589V9.43715H66.9313V12.6163H67.0043L69.1397 9.43715H70.0463V14.0589H69.1388V10.8638H69.0703L66.9313 14.0589H66.0247H66.0256ZM75.0394 10.2057H73.5807V14.0589H72.6653V10.2057H71.2048V9.43715H75.0394V10.2048V10.2057ZM79.9666 12.8113C79.8417 13.2343 79.572 13.6 79.2047 13.8442C78.8375 14.0884 78.396 14.1956 77.9576 14.1471C77.498 14.159 77.0472 14.0205 76.6738 13.7525C76.3003 13.4845 76.0247 13.1017 75.8889 12.6626C75.7997 12.3716 75.7751 12.0647 75.8168 11.7632C75.776 11.4603 75.801 11.1522 75.8902 10.8599C75.9793 10.5676 76.1304 10.298 76.3333 10.0694C76.536 9.84015 76.7856 9.6571 77.0653 9.53266C77.3449 9.40821 77.648 9.34528 77.954 9.3481C79.2426 9.3481 80.0218 10.227 80.0218 11.6777V11.9965H76.7491V12.0472C76.7269 12.3032 76.7863 12.5596 76.9187 12.7797C77.0512 12.9998 77.2499 13.1724 77.4865 13.2726C77.6432 13.3394 77.8124 13.3732 77.9834 13.3705C78.2017 13.3965 78.4228 13.3573 78.6189 13.2578C78.8149 13.1582 78.9771 13.0029 79.0849 12.8113H79.9666ZM76.7491 11.3215H79.0885C79.1003 11.1661 79.0793 11.0101 79.027 10.8633C78.9746 10.7166 78.8921 10.5825 78.7846 10.4697C78.6772 10.3569 78.5473 10.2679 78.4033 10.2084C78.2593 10.149 78.1044 10.1204 77.9487 10.1246C77.7107 10.1216 77.4773 10.1903 77.2788 10.3216C77.0803 10.4529 76.9258 10.6409 76.8355 10.8611C76.7767 11.0071 76.7465 11.1639 76.7491 11.3215ZM83.8429 9.43715H85.9339C86.8395 9.43715 87.372 9.89577 87.372 10.6126C87.3736 10.8406 87.2965 11.0622 87.1538 11.24C87.011 11.4178 86.8113 11.5409 86.5884 11.5886V11.6608C86.8586 11.6781 87.1118 11.7982 87.2962 11.9964C87.4805 12.1947 87.5819 12.456 87.5795 12.7267C87.5795 13.5326 86.9713 14.0589 85.9544 14.0589H83.8438V9.43715H83.8429ZM84.7495 10.138V11.3339H85.656C86.2081 11.3339 86.4735 11.122 86.4735 10.7311C86.4735 10.3713 86.2429 10.138 85.7575 10.138H84.7495ZM84.7495 12.0045V13.3581H85.8341C86.3747 13.3581 86.6641 13.1203 86.6641 12.684C86.6641 12.2209 86.3364 12.0045 85.7201 12.0045H84.7495Z" fill="white"/>
</svg>
