<svg width="28" height="28" viewBox="0 0 28 28" fill="none" xmlns="http://www.w3.org/2000/svg">
<path d="M4.375 5.84861H4.70997C5.53841 5.84861 6.26842 6.37053 6.50491 7.13189L7.1456 9.26727L9.93837 17.5L19.1459 16.6237C20.1833 16.4239 21.0156 15.6819 21.2991 14.7043L22.75 9.26727M14.7875 5.25V11.2361M11.725 8.24303H17.85" stroke="#383838" stroke-width="1.75" stroke-linecap="square"/>
<path d="M8.36649 23.625C9.12118 23.625 9.73298 23.0374 9.73298 22.3125C9.73298 21.5876 9.12118 21 8.36649 21C7.6118 21 7 21.5876 7 22.3125C7 23.0374 7.6118 23.625 8.36649 23.625Z" stroke="#383838" stroke-width="1.75" stroke-linecap="square"/>
<path d="M19.6335 23.625C20.3882 23.625 21 23.0374 21 22.3125C21 21.5876 20.3882 21 19.6335 21C18.8788 21 18.267 21.5876 18.267 22.3125C18.267 23.0374 18.8788 23.625 19.6335 23.625Z" stroke="#383838" stroke-width="1.75" stroke-linecap="square"/>
</svg>
