<svg width="20" height="20" viewBox="0 0 20 20" fill="none" xmlns="http://www.w3.org/2000/svg">
<circle cx="10" cy="10" r="10" fill="#F58735"/>
<circle cx="10" cy="10" r="8.42857" stroke="#FCC84E" stroke-width="0.857143"/>
<path d="M3.14285 9.6807C3.14285 7.96427 4.53571 6.57141 6.25214 6.57141C7.07714 6.57141 7.86785 6.89927 8.45071 7.48213L10 9.02927L11.5471 7.48213C12.1321 6.89927 12.9229 6.57141 13.7479 6.57141C15.4643 6.57141 16.8571 7.96427 16.8571 9.6807V10.3171C16.8571 12.0357 15.4643 13.4286 13.7479 13.4286C12.9229 13.4286 12.1321 13.1007 11.5493 12.5178L10 10.9707L8.45285 12.5178C7.86785 13.1007 7.07714 13.4286 6.25214 13.4286C4.53571 13.4286 3.14285 12.0357 3.14285 10.3193V9.6807V9.6807ZM9.02928 9.99998L7.48214 8.45284C7.15642 8.12713 6.71285 7.94284 6.25214 7.94284C5.29214 7.94284 4.51428 8.7207 4.51428 9.6807V10.3171C4.51428 11.2771 5.29214 12.055 6.25214 12.055C6.71285 12.055 7.15642 11.8728 7.48214 11.545L9.02928 9.99998V9.99998ZM10.9686 9.99998L12.5157 11.5471C12.8414 11.8728 13.285 12.0571 13.7457 12.0571C14.7057 12.0571 15.4836 11.2793 15.4836 10.3193V9.6807C15.4836 8.7207 14.7057 7.94284 13.7457 7.94284C13.285 7.94284 12.8414 8.12498 12.5157 8.45284L10.9707 9.99998H10.9686Z" fill="white"/>
</svg>
