<svg width="64" height="20" viewBox="0 0 64 20" fill="none" xmlns="http://www.w3.org/2000/svg">
<rect width="64" height="20" rx="10" fill="#F58735"/>
<mask id="path-2-outside-1_1_305" maskUnits="userSpaceOnUse" x="3" y="2" width="59" height="16" fill="black">
<rect fill="white" x="3" y="2" width="59" height="16"/>
<path d="M8.63661 15.1446C8.20845 15.1446 7.67587 14.8691 7.03886 14.3181C6.58982 14.2394 6.20343 14.1325 5.87971 13.9976C5.56642 13.8739 5.30535 13.7221 5.0965 13.5422C4.8041 13.2723 4.54825 12.9124 4.32895 12.4627C4.10965 12.0129 4 11.5799 4 11.1639C4 10.849 4.06788 10.5679 4.20363 10.3205C4.51692 9.7245 4.91375 9.42651 5.39412 9.42651C5.75961 9.42651 5.97369 9.75823 6.03635 10.4217C6.10945 11.0402 6.16688 11.5349 6.20865 11.906C6.26087 12.2659 6.30264 12.502 6.33397 12.6145C6.49061 13.1655 6.7569 13.6321 7.13284 14.0145C7.57144 14.1157 8.04659 14.1663 8.55829 14.1663C9.68611 14.1663 10.7669 13.9357 11.8008 13.4747C12.2394 13.2723 12.6675 13.008 13.0852 12.6819C13.503 12.3558 13.8476 11.996 14.1191 11.6024C14.3906 11.2088 14.5264 10.8265 14.5264 10.4554C14.5264 9.92691 14.093 9.51647 13.2262 9.2241L10.4693 8.5494C9.90541 8.41446 9.45115 8.17831 9.10653 7.84096C8.77236 7.49237 8.60528 7.09879 8.60528 6.66024C8.60528 5.98554 8.99688 5.31084 9.7801 4.63614C10.1769 4.28755 10.6416 3.99518 11.1742 3.75904C11.7068 3.51165 12.2655 3.3261 12.8503 3.20241C13.4455 3.06747 14.0147 3 14.5577 3C15.3304 3 15.9883 3.12932 16.5314 3.38795C17.0848 3.64659 17.4295 4.02329 17.5652 4.51807C17.5965 4.63052 17.6122 4.75422 17.6122 4.88916C17.6122 5.5751 17.2937 6.05301 16.6567 6.32289C16.2703 6.49157 15.9414 6.5759 15.6698 6.5759C15.5028 6.5759 15.3722 6.54217 15.2782 6.4747C15.2573 6.45221 15.2469 6.4241 15.2469 6.39036C15.2469 6.31165 15.3931 6.26667 15.6855 6.25542C15.863 6.24418 16.0092 6.22731 16.1241 6.20482C16.239 6.18233 16.3225 6.15984 16.3747 6.13735C16.7716 5.91245 16.97 5.58072 16.97 5.14217C16.97 4.91727 16.9125 4.68112 16.7977 4.43373C16.4739 3.79277 15.6646 3.47229 14.3697 3.47229C13.8998 3.47229 13.4142 3.52851 12.9129 3.64096C12.4117 3.74217 11.9365 3.8996 11.4875 4.11325C11.0385 4.31566 10.6573 4.5743 10.344 4.88916C9.80098 5.42892 9.52947 5.91245 9.52947 6.33976C9.52947 6.66586 9.67567 6.95823 9.96807 7.21687C10.2709 7.46426 10.7252 7.6498 11.3309 7.77349L13.1792 8.14458C13.8893 8.29076 14.4637 8.51004 14.9023 8.80241C15.3409 9.08353 15.5602 9.51647 15.5602 10.1012C15.5602 10.6185 15.4401 11.102 15.1999 11.5518C14.9597 12.0016 14.636 12.4064 14.2287 12.7663C13.8319 13.1149 13.3776 13.4072 12.8659 13.6434C11.7068 14.1944 10.3388 14.4699 8.76192 14.4699C8.56351 14.4699 8.36509 14.4643 8.16668 14.453C7.96827 14.4418 7.77508 14.4249 7.58711 14.4024C7.7333 14.4924 7.91605 14.5823 8.13535 14.6723C8.3651 14.7622 8.62617 14.8466 8.91856 14.9253C8.94989 14.9365 8.96556 14.959 8.96556 14.9928C8.96556 15.094 8.85591 15.1446 8.63661 15.1446ZM6.56893 13.8458C6.28698 13.5084 6.06768 13.1598 5.91103 12.8C5.68129 12.2378 5.50899 11.5462 5.39412 10.7253C5.31057 10.1293 5.22181 9.83133 5.12782 9.83133C5.04428 9.83133 4.92941 9.8988 4.78321 10.0337C4.64745 10.1687 4.57958 10.4554 4.57958 10.894C4.57958 11.7486 4.86153 12.4908 5.42544 13.1205C5.7074 13.4353 6.08856 13.6771 6.56893 13.8458Z"/>
<path d="M16.7201 13.7277C16.2501 13.7277 16.0152 13.4072 16.0152 12.7663C16.0152 12.5189 16.0831 12.2265 16.2188 11.8892C16.365 11.5406 16.5687 11.1751 16.8297 10.7928C16.8297 10.7928 16.7357 10.8884 16.5478 11.0795C16.3598 11.2707 16.1457 11.5124 15.9055 11.8048C15.8638 11.8498 15.8116 11.8723 15.7489 11.8723C15.7071 11.8723 15.6862 11.8442 15.6862 11.788C15.6862 11.7317 15.7332 11.6361 15.8272 11.5012L17.9889 8.76867C18.2604 8.43132 18.558 8.26265 18.8817 8.26265C19.1219 8.26265 19.242 8.36386 19.242 8.56627C19.242 8.64498 19.2107 8.71807 19.148 8.78554C18.9496 8.98795 18.7042 9.2747 18.4118 9.64578C18.1299 10.0169 17.8531 10.4161 17.5816 10.8434C17.3101 11.2707 17.0804 11.6811 16.8924 12.0747C16.7149 12.457 16.6261 12.7663 16.6261 13.0024C16.6261 13.2048 16.6887 13.306 16.8141 13.306C16.8872 13.306 17.002 13.2779 17.1587 13.2217C17.3153 13.1542 17.5242 13.0249 17.7852 12.8337C18.0463 12.6313 18.3596 12.3221 18.7251 11.906C18.7878 11.8386 18.9548 11.6361 19.2264 11.2988C19.4979 10.9614 19.8634 10.4779 20.3228 9.84819C21.1374 8.75743 21.67 8.21205 21.9206 8.21205C22.2652 8.21205 22.4532 8.36386 22.4845 8.66747C22.5054 8.76867 22.2861 9.1004 21.8266 9.66265C21.2314 10.4386 20.8241 10.9952 20.6048 11.3325C20.1975 11.9735 19.9939 12.4739 19.9939 12.8337C19.9939 13.0811 20.0722 13.2048 20.2289 13.2048C20.3855 13.2048 20.5839 13.1261 20.8241 12.9687C21.0747 12.8 21.3358 12.592 21.6073 12.3446C21.8788 12.0859 22.1399 11.8217 22.3905 11.5518C22.6516 11.2707 22.8761 11.012 23.0641 10.7759C23.1267 10.6972 23.1894 10.6578 23.2521 10.6578C23.3147 10.6578 23.346 10.6916 23.346 10.759C23.346 10.7815 23.3408 10.8153 23.3304 10.8602C23.3199 10.9052 23.2886 10.9558 23.2364 11.012C23.0693 11.2145 22.8552 11.4675 22.5942 11.7711C22.3331 12.0635 22.0511 12.3558 21.7483 12.6482C21.4454 12.9406 21.153 13.1823 20.8711 13.3735C20.5891 13.5647 20.349 13.6602 20.1505 13.6602C19.9104 13.6602 19.7015 13.5928 19.524 13.4578C19.3464 13.3116 19.2577 13.1149 19.2577 12.8675C19.2577 12.6201 19.2942 12.3727 19.3673 12.1253C19.4404 11.8667 19.4979 11.6474 19.5396 11.4675C19.0488 12.0859 18.6154 12.5582 18.2395 12.8843C17.874 13.2104 17.5659 13.4297 17.3153 13.5422C17.0647 13.6659 16.8663 13.7277 16.7201 13.7277Z"/>
<path d="M21.7296 16.7301C21.291 16.4715 21.0717 15.9823 21.0717 15.2627C21.0717 14.4867 21.6617 13.1598 22.8417 11.2819C23.9695 9.47149 24.7528 8.49317 25.1914 8.34699C25.2331 8.33574 25.2697 8.33012 25.301 8.33012C25.3323 8.31888 25.3637 8.31325 25.395 8.31325C25.5725 8.31325 25.6613 8.52129 25.6613 8.93735C25.7344 8.85863 25.8597 8.78554 26.0372 8.71807C26.2252 8.63936 26.4132 8.57751 26.6011 8.53253C26.7996 8.48755 26.9458 8.45944 27.0397 8.44819C27.4679 8.4257 27.8229 8.53815 28.1049 8.78554C28.3973 9.02169 28.5435 9.33655 28.5435 9.73012C28.5435 10.641 28.037 11.5237 27.0241 12.3783C26.1051 13.1542 25.2906 13.5422 24.5805 13.5422C24.1105 13.5422 23.7868 13.5141 23.6093 13.4578C23.3586 13.3791 23.1028 13.1711 22.8417 12.8337C22.7269 12.9349 22.6015 13.1092 22.4658 13.3566C22.33 13.5928 22.2047 13.8514 22.0898 14.1325C21.9645 14.4249 21.8653 14.7116 21.7922 14.9928C21.7087 15.2739 21.6669 15.51 21.6669 15.7012C21.6669 15.8924 21.7035 16.0498 21.7766 16.1735C21.8392 16.3084 21.9019 16.4321 21.9645 16.5446C21.9645 16.5558 21.9698 16.5614 21.9802 16.5614C21.9802 16.5727 21.9802 16.5783 21.9802 16.5783C21.9802 16.6345 21.9541 16.6795 21.9019 16.7133C21.8392 16.7582 21.7818 16.7639 21.7296 16.7301ZM24.3768 13.0699C24.9616 13.0699 25.6352 12.7494 26.3975 12.1084C27.2956 11.3438 27.7446 10.4948 27.7446 9.56145C27.7446 9.13414 27.4992 8.92048 27.0084 8.92048C26.5594 8.92048 26.1417 9.02731 25.7553 9.24096C25.6508 9.28594 25.4785 9.43213 25.2383 9.67952C25.0086 9.92691 24.7005 10.2643 24.3142 10.6916C23.4892 11.6137 23.0767 12.204 23.0767 12.4627C23.0767 12.6651 23.249 12.8281 23.5936 12.9518C23.8233 13.0305 24.0844 13.0699 24.3768 13.0699Z"/>
<path d="M29.3416 13.7614C29.0075 13.7614 28.7046 13.649 28.4331 13.4241C28.1616 13.188 28.0258 12.8787 28.0258 12.4964C28.0258 11.698 28.4801 10.7871 29.3886 9.76386C30.318 8.72932 31.1482 8.21205 31.8792 8.21205C32.1194 8.21205 32.3126 8.28514 32.4588 8.43133C32.6155 8.56627 32.6938 8.73494 32.6938 8.93735C32.6938 9.56707 32.2291 10.1855 31.2997 10.7928C30.4747 11.3325 29.7802 11.6024 29.2163 11.6024C29.1328 11.6024 29.0597 11.5912 28.997 11.5687C28.8404 11.8723 28.7621 12.1928 28.7621 12.5301C28.7621 13.1149 29.0179 13.4072 29.5296 13.4072C30.0518 13.4072 30.7253 13.0305 31.5503 12.2771C32.1873 11.7261 32.7303 11.1414 33.1794 10.5229C33.2734 10.388 33.3569 10.3205 33.43 10.3205C33.4927 10.3205 33.524 10.3542 33.524 10.4217C33.524 10.4892 33.4822 10.5847 33.3987 10.7084C33.1063 11.1245 32.793 11.5068 32.4588 11.8554C32.1247 12.204 31.7644 12.5245 31.378 12.8169C30.5739 13.4466 29.8951 13.7614 29.3416 13.7614ZM29.4356 11.2313C29.8325 11.2313 30.3494 11.0177 30.9864 10.5904C31.1952 10.4329 31.3989 10.2586 31.5973 10.0675C31.8061 9.86506 31.9732 9.66265 32.0985 9.46024C32.2343 9.25783 32.3022 9.07791 32.3022 8.92048C32.3022 8.7743 32.1925 8.70121 31.9732 8.70121C31.6599 8.70121 31.2213 8.95422 30.6574 9.46024C30.3859 9.70763 30.1249 9.97751 29.8742 10.2699C29.6236 10.5622 29.4095 10.8715 29.232 11.1976C29.2946 11.2201 29.3625 11.2313 29.4356 11.2313Z"/>
<path d="M35.7614 13.6265C35.3124 13.6265 35.0043 13.5028 34.8372 13.2554C34.6701 12.9968 34.5866 12.6538 34.5866 12.2265C34.5866 11.7542 34.7223 11.192 34.9939 10.5398C35.0983 10.2811 35.2079 10.0506 35.3228 9.84819C35.4377 9.63454 35.5578 9.43775 35.6831 9.25783C35.6413 9.26908 35.6048 9.2747 35.5734 9.2747C35.5421 9.2747 35.5108 9.2747 35.4794 9.2747C35.2288 9.2747 35.02 9.08353 34.8529 8.70121L33.6937 10.3205C33.0776 11.1863 32.7017 11.6193 32.5659 11.6193C32.5137 11.6193 32.4876 11.5968 32.4876 11.5518C32.4876 11.4956 32.5137 11.4225 32.5659 11.3325C32.5972 11.2651 32.6599 11.1751 32.7539 11.0627C33.1507 10.5679 33.5162 10.0787 33.8504 9.59518C34.1845 9.11165 34.4613 8.63936 34.6806 8.17831C34.9208 7.2 35.2236 6.71084 35.5891 6.71084C35.8293 6.71084 35.9494 6.82892 35.9494 7.06506C35.9494 7.27871 35.8188 7.55984 35.5578 7.90843C35.3071 8.25703 35.1818 8.43695 35.1818 8.44819C35.1818 8.68434 35.3437 8.80241 35.6674 8.80241C35.8554 8.80241 36.0642 8.72932 36.294 8.58313L36.7013 8.31325C36.7221 8.30201 36.7535 8.29639 36.7952 8.29639C36.9206 8.29639 37.0302 8.35261 37.1242 8.46506C37.2182 8.57751 37.2495 8.67871 37.2182 8.76867L36.1373 10.2361C35.469 11.1582 35.1348 11.9004 35.1348 12.4627C35.1348 12.9687 35.3646 13.2217 35.8241 13.2217C36.1373 13.2217 36.4715 13.1205 36.8266 12.9181C37.1921 12.7157 37.5419 12.4683 37.8761 12.1759C38.2207 11.8723 38.5079 11.5799 38.7376 11.2988L39.1135 10.8265C39.1344 10.804 39.1605 10.7759 39.1919 10.7422C39.2232 10.7084 39.2493 10.6916 39.2702 10.6916C39.3433 10.6916 39.3798 10.7309 39.3798 10.8096C39.3798 10.8321 39.3694 10.8715 39.3485 10.9277C39.3276 10.9839 39.2911 11.0458 39.2389 11.1133L38.7376 11.7205C38.4974 12.0129 38.1998 12.3108 37.8447 12.6145C37.5001 12.9068 37.1399 13.1486 36.7639 13.3398C36.3984 13.5309 36.0642 13.6265 35.7614 13.6265Z"/>
<path d="M36.0677 17C35.7544 17 35.4881 16.8594 35.2688 16.5783C35.0495 16.2972 34.9347 15.9936 34.9242 15.6675C34.9555 15.5325 35.0025 15.4651 35.0652 15.4651C35.1279 15.4651 35.1644 15.5494 35.1748 15.7181C35.1853 15.898 35.2688 16.0723 35.4255 16.241C35.5821 16.4096 35.7388 16.494 35.8954 16.494C36.783 16.494 37.5924 15.9036 38.3234 14.7229C38.5218 14.408 38.7672 13.9526 39.0596 13.3566C39.352 12.7494 39.6757 11.9904 40.0308 11.0795L40.8766 8.88675C39.8323 8.8755 39.3102 8.74056 39.3102 8.48193C39.3102 8.35823 39.3624 8.26265 39.4668 8.19518C39.5713 8.11647 39.6548 8.07711 39.7175 8.07711C39.7279 8.07711 39.8584 8.08273 40.1091 8.09398C40.3597 8.09398 40.72 8.0996 41.1899 8.11084C42.2133 5.65944 43.1532 4.43373 44.0095 4.43373C44.3436 4.43373 44.6726 4.60241 44.9963 4.93976C45.0799 5.02972 45.1216 5.14779 45.1216 5.29398C45.1216 5.64257 45.0276 5.81687 44.8397 5.81687C44.7875 5.81687 44.7352 5.77189 44.683 5.68193C44.6413 5.60321 44.5734 5.54137 44.4794 5.49639C44.3854 5.44016 44.2966 5.41205 44.2131 5.41205C43.8998 5.41205 43.6231 5.54137 43.3829 5.8C43.1532 6.04739 42.9339 6.37349 42.725 6.77831C42.5266 7.18313 42.3125 7.62731 42.0828 8.11084H42.2707C43.409 8.11084 44.1661 8.09398 44.542 8.06024C44.5838 8.07149 44.6047 8.09398 44.6047 8.12771C44.6047 8.21767 44.234 8.34137 43.4925 8.4988C43.2001 8.54378 42.913 8.59438 42.631 8.6506C42.3491 8.70683 42.0619 8.76305 41.7695 8.81928C41.6337 9.13414 41.4666 9.51084 41.2682 9.9494C41.0698 10.3767 40.8453 10.8546 40.5947 11.3831C40.1039 12.3727 39.7018 13.1598 39.3885 13.7446C39.0752 14.3293 38.8559 14.7173 38.7306 14.9084C37.8221 16.3028 36.9345 17 36.0677 17Z"/>
<path d="M43.5738 13.6265C43.3232 13.6265 43.0725 13.5309 42.8219 13.3398C42.5713 13.1486 42.4303 12.9237 42.399 12.6651C42.2946 11.7992 42.801 10.7703 43.9184 9.57831C45.0254 8.38635 46.0226 7.79036 46.9103 7.79036C47.1505 7.79036 47.3384 7.85221 47.4742 7.9759C47.5473 8.05462 47.5995 8.16145 47.6308 8.29639C47.6726 8.43132 47.7039 8.4988 47.7248 8.4988C47.7666 8.4988 47.8031 8.49317 47.8345 8.48193C47.8658 8.45944 47.9024 8.44819 47.9441 8.44819C48.0694 8.44819 48.1791 8.4988 48.2731 8.6C48.3671 8.7012 48.4193 8.79116 48.4297 8.86988C48.4402 8.89237 48.106 9.449 47.4272 10.5398C46.7484 11.608 46.4404 12.3333 46.503 12.7157C46.5552 12.9743 46.6701 13.1036 46.8476 13.1036C47.3907 13.1036 48.3827 12.1365 49.8238 10.2024C49.8552 10.1574 49.8865 10.1349 49.9178 10.1349C49.97 10.1349 49.9961 10.1743 49.9961 10.253C49.9961 10.343 49.9491 10.4554 49.8552 10.5904C48.5289 12.5133 47.5107 13.4747 46.8006 13.4747C46.7066 13.4747 46.6179 13.4578 46.5343 13.4241C46.0749 13.2329 45.8451 12.8618 45.8451 12.3108C45.8451 12.1197 45.866 11.9285 45.9078 11.7373L44.9366 12.7494C44.6442 13.0643 44.3779 13.2892 44.1377 13.4241C43.908 13.559 43.72 13.6265 43.5738 13.6265ZM43.4328 13.2554C44.0385 13.2554 44.8635 12.5414 45.9078 11.1133L47.5682 8.6506C47.4846 8.49317 47.3489 8.41446 47.1609 8.41446C46.5239 8.41446 45.6624 8.96546 44.5763 10.0675C43.4485 11.192 42.942 12.1197 43.0569 12.8506C43.1091 13.1205 43.2344 13.2554 43.4328 13.2554Z"/>
<path d="M50.7811 13.5759C50.2902 13.5759 49.9247 13.4016 49.6846 13.053C49.4548 12.7044 49.2668 12.2209 49.1207 11.6024C48.9327 11.8048 48.8021 11.906 48.729 11.906C48.6768 11.906 48.6507 11.861 48.6507 11.7711C48.6507 11.7036 48.6768 11.6418 48.729 11.5855C48.729 11.5855 48.8596 11.4112 49.1207 11.0627C49.3922 10.7141 49.8464 10.2249 50.4834 9.59518L52.4571 7.60482C52.7286 7.32369 52.9427 7.11004 53.0994 6.96386C53.2664 6.81767 53.3865 6.74458 53.4596 6.74458C53.7938 6.74458 53.9609 6.87952 53.9609 7.1494C53.9609 7.28434 53.893 7.44177 53.7573 7.62169C53.6528 7.75663 53.5745 7.86345 53.5223 7.94217C53.4805 8.00964 53.4544 8.049 53.444 8.06024C53.256 8.40884 53.0837 9.03293 52.9271 9.93253C52.8122 10.596 52.713 11.1414 52.6294 11.5687C52.5459 11.996 52.478 12.3052 52.4258 12.4964C52.8644 12.4851 53.2978 12.339 53.7259 12.0578C54.1541 11.7767 54.6136 11.3157 55.1044 10.6747C55.1253 10.6522 55.1566 10.6185 55.1984 10.5735C55.2401 10.5285 55.2819 10.506 55.3237 10.506C55.3863 10.506 55.4177 10.5341 55.4177 10.5904C55.4177 10.6466 55.402 10.7028 55.3707 10.759C55.3393 10.8153 55.308 10.8659 55.2767 10.9108C54.953 11.3269 54.6501 11.6699 54.3682 11.9398C54.0862 12.1984 53.7886 12.4064 53.4753 12.5639C53.162 12.71 52.7913 12.8337 52.3631 12.9349L51.8619 13.2892C51.7261 13.3904 51.5643 13.4635 51.3763 13.5084C51.1883 13.5534 50.9899 13.5759 50.7811 13.5759ZM50.969 12.7157C51.2092 12.7157 51.4076 12.6538 51.5643 12.5301C51.6791 12.4627 51.7888 12.2771 51.8932 11.9735C52.0081 11.6586 52.1177 11.2707 52.2222 10.8096C52.3057 10.4161 52.3684 10.0337 52.4101 9.66265C52.4623 9.28032 52.5093 8.91486 52.5511 8.56627L52.6138 7.99277C52.3736 8.18394 52.0707 8.45944 51.7052 8.81928C51.3397 9.17912 50.9795 9.55582 50.6244 9.9494C50.2694 10.343 50.0396 10.6353 49.9352 10.8265C49.8308 11.0064 49.7733 11.1414 49.7629 11.2313C49.7211 11.6811 49.8203 12.041 50.0605 12.3108C50.3111 12.5807 50.614 12.7157 50.969 12.7157Z"/>
<path d="M55.5802 13.6434C55.246 13.6434 54.9797 13.559 54.7813 13.3904C54.5933 13.2104 54.4993 12.8956 54.4993 12.4458C54.4993 12.1871 54.5724 11.861 54.7186 11.4675C54.8648 11.0627 55.0476 10.6297 55.2669 10.1687C55.4862 9.70763 55.7055 9.25221 55.9248 8.80241C55.789 8.83614 55.6689 8.85301 55.5645 8.85301C55.2512 8.85301 55.0946 8.72369 55.0946 8.46506C55.0946 8.34137 55.1364 8.24578 55.2199 8.17831C55.3139 8.11084 55.3974 8.07149 55.4705 8.06024C55.4705 8.06024 55.481 8.06024 55.5019 8.06024C55.5332 8.06024 55.5697 8.05462 55.6115 8.04337H56.52C56.708 7.78474 56.9012 7.50924 57.0996 7.21687C57.3816 6.83454 57.6061 6.60964 57.7732 6.54217H57.8202C57.8933 6.54217 57.9977 6.58153 58.1334 6.66024C58.3005 6.76145 58.3841 6.86265 58.3841 6.96386C58.3841 7.11004 58.1334 7.48675 57.6322 8.09398C57.7262 8.10522 57.8619 8.11084 58.0395 8.11084C58.217 8.11084 58.4363 8.11084 58.6974 8.11084C58.8227 8.11084 59.0002 8.11084 59.2299 8.11084C59.4701 8.11084 59.7155 8.11084 59.9662 8.11084C60.2272 8.0996 60.4518 8.09398 60.6397 8.09398C60.8277 8.08273 60.9321 8.07711 60.953 8.07711C60.9843 8.08835 61 8.10522 61 8.12771C61 8.22892 60.3839 8.36386 59.1516 8.53253C58.452 8.63374 57.9142 8.71245 57.5382 8.76867C57.1727 8.8249 56.9743 8.85863 56.943 8.86988C56.7968 9.00482 56.6192 9.23534 56.4104 9.56145C56.2015 9.88755 55.9927 10.253 55.7838 10.6578C55.575 11.0627 55.3974 11.4506 55.2512 11.8217C55.1155 12.1815 55.0476 12.4627 55.0476 12.6651C55.0476 12.845 55.1103 12.9968 55.2356 13.1205C55.3609 13.2329 55.5645 13.2892 55.8465 13.2892C56.0344 13.2892 56.259 13.2442 56.52 13.1542C56.7811 13.0643 57.0265 12.9631 57.2562 12.8506C57.4964 12.7269 57.6687 12.6313 57.7732 12.5639C58.0447 12.3839 58.3423 12.1478 58.666 11.8554C59.0002 11.5518 59.3292 11.2088 59.6529 10.8265C59.7991 10.6691 59.8983 10.5904 59.9505 10.5904C59.9818 10.5904 59.9975 10.6129 59.9975 10.6578C59.9975 10.7478 59.9192 10.894 59.7625 11.0964C59.5119 11.4225 59.2299 11.7373 58.9167 12.041C58.6138 12.3333 58.2744 12.6032 57.8985 12.8506C57.4703 13.1317 57.0578 13.3341 56.661 13.4578C56.2746 13.5815 55.9144 13.6434 55.5802 13.6434Z"/>
</mask>
<path d="M8.63661 15.1446C8.20845 15.1446 7.67587 14.8691 7.03886 14.3181C6.58982 14.2394 6.20343 14.1325 5.87971 13.9976C5.56642 13.8739 5.30535 13.7221 5.0965 13.5422C4.8041 13.2723 4.54825 12.9124 4.32895 12.4627C4.10965 12.0129 4 11.5799 4 11.1639C4 10.849 4.06788 10.5679 4.20363 10.3205C4.51692 9.7245 4.91375 9.42651 5.39412 9.42651C5.75961 9.42651 5.97369 9.75823 6.03635 10.4217C6.10945 11.0402 6.16688 11.5349 6.20865 11.906C6.26087 12.2659 6.30264 12.502 6.33397 12.6145C6.49061 13.1655 6.7569 13.6321 7.13284 14.0145C7.57144 14.1157 8.04659 14.1663 8.55829 14.1663C9.68611 14.1663 10.7669 13.9357 11.8008 13.4747C12.2394 13.2723 12.6675 13.008 13.0852 12.6819C13.503 12.3558 13.8476 11.996 14.1191 11.6024C14.3906 11.2088 14.5264 10.8265 14.5264 10.4554C14.5264 9.92691 14.093 9.51647 13.2262 9.2241L10.4693 8.5494C9.90541 8.41446 9.45115 8.17831 9.10653 7.84096C8.77236 7.49237 8.60528 7.09879 8.60528 6.66024C8.60528 5.98554 8.99688 5.31084 9.7801 4.63614C10.1769 4.28755 10.6416 3.99518 11.1742 3.75904C11.7068 3.51165 12.2655 3.3261 12.8503 3.20241C13.4455 3.06747 14.0147 3 14.5577 3C15.3304 3 15.9883 3.12932 16.5314 3.38795C17.0848 3.64659 17.4295 4.02329 17.5652 4.51807C17.5965 4.63052 17.6122 4.75422 17.6122 4.88916C17.6122 5.5751 17.2937 6.05301 16.6567 6.32289C16.2703 6.49157 15.9414 6.5759 15.6698 6.5759C15.5028 6.5759 15.3722 6.54217 15.2782 6.4747C15.2573 6.45221 15.2469 6.4241 15.2469 6.39036C15.2469 6.31165 15.3931 6.26667 15.6855 6.25542C15.863 6.24418 16.0092 6.22731 16.1241 6.20482C16.239 6.18233 16.3225 6.15984 16.3747 6.13735C16.7716 5.91245 16.97 5.58072 16.97 5.14217C16.97 4.91727 16.9125 4.68112 16.7977 4.43373C16.4739 3.79277 15.6646 3.47229 14.3697 3.47229C13.8998 3.47229 13.4142 3.52851 12.9129 3.64096C12.4117 3.74217 11.9365 3.8996 11.4875 4.11325C11.0385 4.31566 10.6573 4.5743 10.344 4.88916C9.80098 5.42892 9.52947 5.91245 9.52947 6.33976C9.52947 6.66586 9.67567 6.95823 9.96807 7.21687C10.2709 7.46426 10.7252 7.6498 11.3309 7.77349L13.1792 8.14458C13.8893 8.29076 14.4637 8.51004 14.9023 8.80241C15.3409 9.08353 15.5602 9.51647 15.5602 10.1012C15.5602 10.6185 15.4401 11.102 15.1999 11.5518C14.9597 12.0016 14.636 12.4064 14.2287 12.7663C13.8319 13.1149 13.3776 13.4072 12.8659 13.6434C11.7068 14.1944 10.3388 14.4699 8.76192 14.4699C8.56351 14.4699 8.36509 14.4643 8.16668 14.453C7.96827 14.4418 7.77508 14.4249 7.58711 14.4024C7.7333 14.4924 7.91605 14.5823 8.13535 14.6723C8.3651 14.7622 8.62617 14.8466 8.91856 14.9253C8.94989 14.9365 8.96556 14.959 8.96556 14.9928C8.96556 15.094 8.85591 15.1446 8.63661 15.1446ZM6.56893 13.8458C6.28698 13.5084 6.06768 13.1598 5.91103 12.8C5.68129 12.2378 5.50899 11.5462 5.39412 10.7253C5.31057 10.1293 5.22181 9.83133 5.12782 9.83133C5.04428 9.83133 4.92941 9.8988 4.78321 10.0337C4.64745 10.1687 4.57958 10.4554 4.57958 10.894C4.57958 11.7486 4.86153 12.4908 5.42544 13.1205C5.7074 13.4353 6.08856 13.6771 6.56893 13.8458Z" fill="white"/>
<path d="M16.7201 13.7277C16.2501 13.7277 16.0152 13.4072 16.0152 12.7663C16.0152 12.5189 16.0831 12.2265 16.2188 11.8892C16.365 11.5406 16.5687 11.1751 16.8297 10.7928C16.8297 10.7928 16.7357 10.8884 16.5478 11.0795C16.3598 11.2707 16.1457 11.5124 15.9055 11.8048C15.8638 11.8498 15.8116 11.8723 15.7489 11.8723C15.7071 11.8723 15.6862 11.8442 15.6862 11.788C15.6862 11.7317 15.7332 11.6361 15.8272 11.5012L17.9889 8.76867C18.2604 8.43132 18.558 8.26265 18.8817 8.26265C19.1219 8.26265 19.242 8.36386 19.242 8.56627C19.242 8.64498 19.2107 8.71807 19.148 8.78554C18.9496 8.98795 18.7042 9.2747 18.4118 9.64578C18.1299 10.0169 17.8531 10.4161 17.5816 10.8434C17.3101 11.2707 17.0804 11.6811 16.8924 12.0747C16.7149 12.457 16.6261 12.7663 16.6261 13.0024C16.6261 13.2048 16.6887 13.306 16.8141 13.306C16.8872 13.306 17.002 13.2779 17.1587 13.2217C17.3153 13.1542 17.5242 13.0249 17.7852 12.8337C18.0463 12.6313 18.3596 12.3221 18.7251 11.906C18.7878 11.8386 18.9548 11.6361 19.2264 11.2988C19.4979 10.9614 19.8634 10.4779 20.3228 9.84819C21.1374 8.75743 21.67 8.21205 21.9206 8.21205C22.2652 8.21205 22.4532 8.36386 22.4845 8.66747C22.5054 8.76867 22.2861 9.1004 21.8266 9.66265C21.2314 10.4386 20.8241 10.9952 20.6048 11.3325C20.1975 11.9735 19.9939 12.4739 19.9939 12.8337C19.9939 13.0811 20.0722 13.2048 20.2289 13.2048C20.3855 13.2048 20.5839 13.1261 20.8241 12.9687C21.0747 12.8 21.3358 12.592 21.6073 12.3446C21.8788 12.0859 22.1399 11.8217 22.3905 11.5518C22.6516 11.2707 22.8761 11.012 23.0641 10.7759C23.1267 10.6972 23.1894 10.6578 23.2521 10.6578C23.3147 10.6578 23.346 10.6916 23.346 10.759C23.346 10.7815 23.3408 10.8153 23.3304 10.8602C23.3199 10.9052 23.2886 10.9558 23.2364 11.012C23.0693 11.2145 22.8552 11.4675 22.5942 11.7711C22.3331 12.0635 22.0511 12.3558 21.7483 12.6482C21.4454 12.9406 21.153 13.1823 20.8711 13.3735C20.5891 13.5647 20.349 13.6602 20.1505 13.6602C19.9104 13.6602 19.7015 13.5928 19.524 13.4578C19.3464 13.3116 19.2577 13.1149 19.2577 12.8675C19.2577 12.6201 19.2942 12.3727 19.3673 12.1253C19.4404 11.8667 19.4979 11.6474 19.5396 11.4675C19.0488 12.0859 18.6154 12.5582 18.2395 12.8843C17.874 13.2104 17.5659 13.4297 17.3153 13.5422C17.0647 13.6659 16.8663 13.7277 16.7201 13.7277Z" fill="white"/>
<path d="M21.7296 16.7301C21.291 16.4715 21.0717 15.9823 21.0717 15.2627C21.0717 14.4867 21.6617 13.1598 22.8417 11.2819C23.9695 9.47149 24.7528 8.49317 25.1914 8.34699C25.2331 8.33574 25.2697 8.33012 25.301 8.33012C25.3323 8.31888 25.3637 8.31325 25.395 8.31325C25.5725 8.31325 25.6613 8.52129 25.6613 8.93735C25.7344 8.85863 25.8597 8.78554 26.0372 8.71807C26.2252 8.63936 26.4132 8.57751 26.6011 8.53253C26.7996 8.48755 26.9458 8.45944 27.0397 8.44819C27.4679 8.4257 27.8229 8.53815 28.1049 8.78554C28.3973 9.02169 28.5435 9.33655 28.5435 9.73012C28.5435 10.641 28.037 11.5237 27.0241 12.3783C26.1051 13.1542 25.2906 13.5422 24.5805 13.5422C24.1105 13.5422 23.7868 13.5141 23.6093 13.4578C23.3586 13.3791 23.1028 13.1711 22.8417 12.8337C22.7269 12.9349 22.6015 13.1092 22.4658 13.3566C22.33 13.5928 22.2047 13.8514 22.0898 14.1325C21.9645 14.4249 21.8653 14.7116 21.7922 14.9928C21.7087 15.2739 21.6669 15.51 21.6669 15.7012C21.6669 15.8924 21.7035 16.0498 21.7766 16.1735C21.8392 16.3084 21.9019 16.4321 21.9645 16.5446C21.9645 16.5558 21.9698 16.5614 21.9802 16.5614C21.9802 16.5727 21.9802 16.5783 21.9802 16.5783C21.9802 16.6345 21.9541 16.6795 21.9019 16.7133C21.8392 16.7582 21.7818 16.7639 21.7296 16.7301ZM24.3768 13.0699C24.9616 13.0699 25.6352 12.7494 26.3975 12.1084C27.2956 11.3438 27.7446 10.4948 27.7446 9.56145C27.7446 9.13414 27.4992 8.92048 27.0084 8.92048C26.5594 8.92048 26.1417 9.02731 25.7553 9.24096C25.6508 9.28594 25.4785 9.43213 25.2383 9.67952C25.0086 9.92691 24.7005 10.2643 24.3142 10.6916C23.4892 11.6137 23.0767 12.204 23.0767 12.4627C23.0767 12.6651 23.249 12.8281 23.5936 12.9518C23.8233 13.0305 24.0844 13.0699 24.3768 13.0699Z" fill="white"/>
<path d="M29.3416 13.7614C29.0075 13.7614 28.7046 13.649 28.4331 13.4241C28.1616 13.188 28.0258 12.8787 28.0258 12.4964C28.0258 11.698 28.4801 10.7871 29.3886 9.76386C30.318 8.72932 31.1482 8.21205 31.8792 8.21205C32.1194 8.21205 32.3126 8.28514 32.4588 8.43133C32.6155 8.56627 32.6938 8.73494 32.6938 8.93735C32.6938 9.56707 32.2291 10.1855 31.2997 10.7928C30.4747 11.3325 29.7802 11.6024 29.2163 11.6024C29.1328 11.6024 29.0597 11.5912 28.997 11.5687C28.8404 11.8723 28.7621 12.1928 28.7621 12.5301C28.7621 13.1149 29.0179 13.4072 29.5296 13.4072C30.0518 13.4072 30.7253 13.0305 31.5503 12.2771C32.1873 11.7261 32.7303 11.1414 33.1794 10.5229C33.2734 10.388 33.3569 10.3205 33.43 10.3205C33.4927 10.3205 33.524 10.3542 33.524 10.4217C33.524 10.4892 33.4822 10.5847 33.3987 10.7084C33.1063 11.1245 32.793 11.5068 32.4588 11.8554C32.1247 12.204 31.7644 12.5245 31.378 12.8169C30.5739 13.4466 29.8951 13.7614 29.3416 13.7614ZM29.4356 11.2313C29.8325 11.2313 30.3494 11.0177 30.9864 10.5904C31.1952 10.4329 31.3989 10.2586 31.5973 10.0675C31.8061 9.86506 31.9732 9.66265 32.0985 9.46024C32.2343 9.25783 32.3022 9.07791 32.3022 8.92048C32.3022 8.7743 32.1925 8.70121 31.9732 8.70121C31.6599 8.70121 31.2213 8.95422 30.6574 9.46024C30.3859 9.70763 30.1249 9.97751 29.8742 10.2699C29.6236 10.5622 29.4095 10.8715 29.232 11.1976C29.2946 11.2201 29.3625 11.2313 29.4356 11.2313Z" fill="white"/>
<path d="M35.7614 13.6265C35.3124 13.6265 35.0043 13.5028 34.8372 13.2554C34.6701 12.9968 34.5866 12.6538 34.5866 12.2265C34.5866 11.7542 34.7223 11.192 34.9939 10.5398C35.0983 10.2811 35.2079 10.0506 35.3228 9.84819C35.4377 9.63454 35.5578 9.43775 35.6831 9.25783C35.6413 9.26908 35.6048 9.2747 35.5734 9.2747C35.5421 9.2747 35.5108 9.2747 35.4794 9.2747C35.2288 9.2747 35.02 9.08353 34.8529 8.70121L33.6937 10.3205C33.0776 11.1863 32.7017 11.6193 32.5659 11.6193C32.5137 11.6193 32.4876 11.5968 32.4876 11.5518C32.4876 11.4956 32.5137 11.4225 32.5659 11.3325C32.5972 11.2651 32.6599 11.1751 32.7539 11.0627C33.1507 10.5679 33.5162 10.0787 33.8504 9.59518C34.1845 9.11165 34.4613 8.63936 34.6806 8.17831C34.9208 7.2 35.2236 6.71084 35.5891 6.71084C35.8293 6.71084 35.9494 6.82892 35.9494 7.06506C35.9494 7.27871 35.8188 7.55984 35.5578 7.90843C35.3071 8.25703 35.1818 8.43695 35.1818 8.44819C35.1818 8.68434 35.3437 8.80241 35.6674 8.80241C35.8554 8.80241 36.0642 8.72932 36.294 8.58313L36.7013 8.31325C36.7221 8.30201 36.7535 8.29639 36.7952 8.29639C36.9206 8.29639 37.0302 8.35261 37.1242 8.46506C37.2182 8.57751 37.2495 8.67871 37.2182 8.76867L36.1373 10.2361C35.469 11.1582 35.1348 11.9004 35.1348 12.4627C35.1348 12.9687 35.3646 13.2217 35.8241 13.2217C36.1373 13.2217 36.4715 13.1205 36.8266 12.9181C37.1921 12.7157 37.5419 12.4683 37.8761 12.1759C38.2207 11.8723 38.5079 11.5799 38.7376 11.2988L39.1135 10.8265C39.1344 10.804 39.1605 10.7759 39.1919 10.7422C39.2232 10.7084 39.2493 10.6916 39.2702 10.6916C39.3433 10.6916 39.3798 10.7309 39.3798 10.8096C39.3798 10.8321 39.3694 10.8715 39.3485 10.9277C39.3276 10.9839 39.2911 11.0458 39.2389 11.1133L38.7376 11.7205C38.4974 12.0129 38.1998 12.3108 37.8447 12.6145C37.5001 12.9068 37.1399 13.1486 36.7639 13.3398C36.3984 13.5309 36.0642 13.6265 35.7614 13.6265Z" fill="white"/>
<path d="M36.0677 17C35.7544 17 35.4881 16.8594 35.2688 16.5783C35.0495 16.2972 34.9347 15.9936 34.9242 15.6675C34.9555 15.5325 35.0025 15.4651 35.0652 15.4651C35.1279 15.4651 35.1644 15.5494 35.1748 15.7181C35.1853 15.898 35.2688 16.0723 35.4255 16.241C35.5821 16.4096 35.7388 16.494 35.8954 16.494C36.783 16.494 37.5924 15.9036 38.3234 14.7229C38.5218 14.408 38.7672 13.9526 39.0596 13.3566C39.352 12.7494 39.6757 11.9904 40.0308 11.0795L40.8766 8.88675C39.8323 8.8755 39.3102 8.74056 39.3102 8.48193C39.3102 8.35823 39.3624 8.26265 39.4668 8.19518C39.5713 8.11647 39.6548 8.07711 39.7175 8.07711C39.7279 8.07711 39.8584 8.08273 40.1091 8.09398C40.3597 8.09398 40.72 8.0996 41.1899 8.11084C42.2133 5.65944 43.1532 4.43373 44.0095 4.43373C44.3436 4.43373 44.6726 4.60241 44.9963 4.93976C45.0799 5.02972 45.1216 5.14779 45.1216 5.29398C45.1216 5.64257 45.0276 5.81687 44.8397 5.81687C44.7875 5.81687 44.7352 5.77189 44.683 5.68193C44.6413 5.60321 44.5734 5.54137 44.4794 5.49639C44.3854 5.44016 44.2966 5.41205 44.2131 5.41205C43.8998 5.41205 43.6231 5.54137 43.3829 5.8C43.1532 6.04739 42.9339 6.37349 42.725 6.77831C42.5266 7.18313 42.3125 7.62731 42.0828 8.11084H42.2707C43.409 8.11084 44.1661 8.09398 44.542 8.06024C44.5838 8.07149 44.6047 8.09398 44.6047 8.12771C44.6047 8.21767 44.234 8.34137 43.4925 8.4988C43.2001 8.54378 42.913 8.59438 42.631 8.6506C42.3491 8.70683 42.0619 8.76305 41.7695 8.81928C41.6337 9.13414 41.4666 9.51084 41.2682 9.9494C41.0698 10.3767 40.8453 10.8546 40.5947 11.3831C40.1039 12.3727 39.7018 13.1598 39.3885 13.7446C39.0752 14.3293 38.8559 14.7173 38.7306 14.9084C37.8221 16.3028 36.9345 17 36.0677 17Z" fill="white"/>
<path d="M43.5738 13.6265C43.3232 13.6265 43.0725 13.5309 42.8219 13.3398C42.5713 13.1486 42.4303 12.9237 42.399 12.6651C42.2946 11.7992 42.801 10.7703 43.9184 9.57831C45.0254 8.38635 46.0226 7.79036 46.9103 7.79036C47.1505 7.79036 47.3384 7.85221 47.4742 7.9759C47.5473 8.05462 47.5995 8.16145 47.6308 8.29639C47.6726 8.43132 47.7039 8.4988 47.7248 8.4988C47.7666 8.4988 47.8031 8.49317 47.8345 8.48193C47.8658 8.45944 47.9024 8.44819 47.9441 8.44819C48.0694 8.44819 48.1791 8.4988 48.2731 8.6C48.3671 8.7012 48.4193 8.79116 48.4297 8.86988C48.4402 8.89237 48.106 9.449 47.4272 10.5398C46.7484 11.608 46.4404 12.3333 46.503 12.7157C46.5552 12.9743 46.6701 13.1036 46.8476 13.1036C47.3907 13.1036 48.3827 12.1365 49.8238 10.2024C49.8552 10.1574 49.8865 10.1349 49.9178 10.1349C49.97 10.1349 49.9961 10.1743 49.9961 10.253C49.9961 10.343 49.9491 10.4554 49.8552 10.5904C48.5289 12.5133 47.5107 13.4747 46.8006 13.4747C46.7066 13.4747 46.6179 13.4578 46.5343 13.4241C46.0749 13.2329 45.8451 12.8618 45.8451 12.3108C45.8451 12.1197 45.866 11.9285 45.9078 11.7373L44.9366 12.7494C44.6442 13.0643 44.3779 13.2892 44.1377 13.4241C43.908 13.559 43.72 13.6265 43.5738 13.6265ZM43.4328 13.2554C44.0385 13.2554 44.8635 12.5414 45.9078 11.1133L47.5682 8.6506C47.4846 8.49317 47.3489 8.41446 47.1609 8.41446C46.5239 8.41446 45.6624 8.96546 44.5763 10.0675C43.4485 11.192 42.942 12.1197 43.0569 12.8506C43.1091 13.1205 43.2344 13.2554 43.4328 13.2554Z" fill="white"/>
<path d="M50.7811 13.5759C50.2902 13.5759 49.9247 13.4016 49.6846 13.053C49.4548 12.7044 49.2668 12.2209 49.1207 11.6024C48.9327 11.8048 48.8021 11.906 48.729 11.906C48.6768 11.906 48.6507 11.861 48.6507 11.7711C48.6507 11.7036 48.6768 11.6418 48.729 11.5855C48.729 11.5855 48.8596 11.4112 49.1207 11.0627C49.3922 10.7141 49.8464 10.2249 50.4834 9.59518L52.4571 7.60482C52.7286 7.32369 52.9427 7.11004 53.0994 6.96386C53.2664 6.81767 53.3865 6.74458 53.4596 6.74458C53.7938 6.74458 53.9609 6.87952 53.9609 7.1494C53.9609 7.28434 53.893 7.44177 53.7573 7.62169C53.6528 7.75663 53.5745 7.86345 53.5223 7.94217C53.4805 8.00964 53.4544 8.049 53.444 8.06024C53.256 8.40884 53.0837 9.03293 52.9271 9.93253C52.8122 10.596 52.713 11.1414 52.6294 11.5687C52.5459 11.996 52.478 12.3052 52.4258 12.4964C52.8644 12.4851 53.2978 12.339 53.7259 12.0578C54.1541 11.7767 54.6136 11.3157 55.1044 10.6747C55.1253 10.6522 55.1566 10.6185 55.1984 10.5735C55.2401 10.5285 55.2819 10.506 55.3237 10.506C55.3863 10.506 55.4177 10.5341 55.4177 10.5904C55.4177 10.6466 55.402 10.7028 55.3707 10.759C55.3393 10.8153 55.308 10.8659 55.2767 10.9108C54.953 11.3269 54.6501 11.6699 54.3682 11.9398C54.0862 12.1984 53.7886 12.4064 53.4753 12.5639C53.162 12.71 52.7913 12.8337 52.3631 12.9349L51.8619 13.2892C51.7261 13.3904 51.5643 13.4635 51.3763 13.5084C51.1883 13.5534 50.9899 13.5759 50.7811 13.5759ZM50.969 12.7157C51.2092 12.7157 51.4076 12.6538 51.5643 12.5301C51.6791 12.4627 51.7888 12.2771 51.8932 11.9735C52.0081 11.6586 52.1177 11.2707 52.2222 10.8096C52.3057 10.4161 52.3684 10.0337 52.4101 9.66265C52.4623 9.28032 52.5093 8.91486 52.5511 8.56627L52.6138 7.99277C52.3736 8.18394 52.0707 8.45944 51.7052 8.81928C51.3397 9.17912 50.9795 9.55582 50.6244 9.9494C50.2694 10.343 50.0396 10.6353 49.9352 10.8265C49.8308 11.0064 49.7733 11.1414 49.7629 11.2313C49.7211 11.6811 49.8203 12.041 50.0605 12.3108C50.3111 12.5807 50.614 12.7157 50.969 12.7157Z" fill="white"/>
<path d="M55.5802 13.6434C55.246 13.6434 54.9797 13.559 54.7813 13.3904C54.5933 13.2104 54.4993 12.8956 54.4993 12.4458C54.4993 12.1871 54.5724 11.861 54.7186 11.4675C54.8648 11.0627 55.0476 10.6297 55.2669 10.1687C55.4862 9.70763 55.7055 9.25221 55.9248 8.80241C55.789 8.83614 55.6689 8.85301 55.5645 8.85301C55.2512 8.85301 55.0946 8.72369 55.0946 8.46506C55.0946 8.34137 55.1364 8.24578 55.2199 8.17831C55.3139 8.11084 55.3974 8.07149 55.4705 8.06024C55.4705 8.06024 55.481 8.06024 55.5019 8.06024C55.5332 8.06024 55.5697 8.05462 55.6115 8.04337H56.52C56.708 7.78474 56.9012 7.50924 57.0996 7.21687C57.3816 6.83454 57.6061 6.60964 57.7732 6.54217H57.8202C57.8933 6.54217 57.9977 6.58153 58.1334 6.66024C58.3005 6.76145 58.3841 6.86265 58.3841 6.96386C58.3841 7.11004 58.1334 7.48675 57.6322 8.09398C57.7262 8.10522 57.8619 8.11084 58.0395 8.11084C58.217 8.11084 58.4363 8.11084 58.6974 8.11084C58.8227 8.11084 59.0002 8.11084 59.2299 8.11084C59.4701 8.11084 59.7155 8.11084 59.9662 8.11084C60.2272 8.0996 60.4518 8.09398 60.6397 8.09398C60.8277 8.08273 60.9321 8.07711 60.953 8.07711C60.9843 8.08835 61 8.10522 61 8.12771C61 8.22892 60.3839 8.36386 59.1516 8.53253C58.452 8.63374 57.9142 8.71245 57.5382 8.76867C57.1727 8.8249 56.9743 8.85863 56.943 8.86988C56.7968 9.00482 56.6192 9.23534 56.4104 9.56145C56.2015 9.88755 55.9927 10.253 55.7838 10.6578C55.575 11.0627 55.3974 11.4506 55.2512 11.8217C55.1155 12.1815 55.0476 12.4627 55.0476 12.6651C55.0476 12.845 55.1103 12.9968 55.2356 13.1205C55.3609 13.2329 55.5645 13.2892 55.8465 13.2892C56.0344 13.2892 56.259 13.2442 56.52 13.1542C56.7811 13.0643 57.0265 12.9631 57.2562 12.8506C57.4964 12.7269 57.6687 12.6313 57.7732 12.5639C58.0447 12.3839 58.3423 12.1478 58.666 11.8554C59.0002 11.5518 59.3292 11.2088 59.6529 10.8265C59.7991 10.6691 59.8983 10.5904 59.9505 10.5904C59.9818 10.5904 59.9975 10.6129 59.9975 10.6578C59.9975 10.7478 59.9192 10.894 59.7625 11.0964C59.5119 11.4225 59.2299 11.7373 58.9167 12.041C58.6138 12.3333 58.2744 12.6032 57.8985 12.8506C57.4703 13.1317 57.0578 13.3341 56.661 13.4578C56.2746 13.5815 55.9144 13.6434 55.5802 13.6434Z" fill="white"/>
<path d="M8.63661 15.1446C8.20845 15.1446 7.67587 14.8691 7.03886 14.3181C6.58982 14.2394 6.20343 14.1325 5.87971 13.9976C5.56642 13.8739 5.30535 13.7221 5.0965 13.5422C4.8041 13.2723 4.54825 12.9124 4.32895 12.4627C4.10965 12.0129 4 11.5799 4 11.1639C4 10.849 4.06788 10.5679 4.20363 10.3205C4.51692 9.7245 4.91375 9.42651 5.39412 9.42651C5.75961 9.42651 5.97369 9.75823 6.03635 10.4217C6.10945 11.0402 6.16688 11.5349 6.20865 11.906C6.26087 12.2659 6.30264 12.502 6.33397 12.6145C6.49061 13.1655 6.7569 13.6321 7.13284 14.0145C7.57144 14.1157 8.04659 14.1663 8.55829 14.1663C9.68611 14.1663 10.7669 13.9357 11.8008 13.4747C12.2394 13.2723 12.6675 13.008 13.0852 12.6819C13.503 12.3558 13.8476 11.996 14.1191 11.6024C14.3906 11.2088 14.5264 10.8265 14.5264 10.4554C14.5264 9.92691 14.093 9.51647 13.2262 9.2241L10.4693 8.5494C9.90541 8.41446 9.45115 8.17831 9.10653 7.84096C8.77236 7.49237 8.60528 7.09879 8.60528 6.66024C8.60528 5.98554 8.99688 5.31084 9.7801 4.63614C10.1769 4.28755 10.6416 3.99518 11.1742 3.75904C11.7068 3.51165 12.2655 3.3261 12.8503 3.20241C13.4455 3.06747 14.0147 3 14.5577 3C15.3304 3 15.9883 3.12932 16.5314 3.38795C17.0848 3.64659 17.4295 4.02329 17.5652 4.51807C17.5965 4.63052 17.6122 4.75422 17.6122 4.88916C17.6122 5.5751 17.2937 6.05301 16.6567 6.32289C16.2703 6.49157 15.9414 6.5759 15.6698 6.5759C15.5028 6.5759 15.3722 6.54217 15.2782 6.4747C15.2573 6.45221 15.2469 6.4241 15.2469 6.39036C15.2469 6.31165 15.3931 6.26667 15.6855 6.25542C15.863 6.24418 16.0092 6.22731 16.1241 6.20482C16.239 6.18233 16.3225 6.15984 16.3747 6.13735C16.7716 5.91245 16.97 5.58072 16.97 5.14217C16.97 4.91727 16.9125 4.68112 16.7977 4.43373C16.4739 3.79277 15.6646 3.47229 14.3697 3.47229C13.8998 3.47229 13.4142 3.52851 12.9129 3.64096C12.4117 3.74217 11.9365 3.8996 11.4875 4.11325C11.0385 4.31566 10.6573 4.5743 10.344 4.88916C9.80098 5.42892 9.52947 5.91245 9.52947 6.33976C9.52947 6.66586 9.67567 6.95823 9.96807 7.21687C10.2709 7.46426 10.7252 7.6498 11.3309 7.77349L13.1792 8.14458C13.8893 8.29076 14.4637 8.51004 14.9023 8.80241C15.3409 9.08353 15.5602 9.51647 15.5602 10.1012C15.5602 10.6185 15.4401 11.102 15.1999 11.5518C14.9597 12.0016 14.636 12.4064 14.2287 12.7663C13.8319 13.1149 13.3776 13.4072 12.8659 13.6434C11.7068 14.1944 10.3388 14.4699 8.76192 14.4699C8.56351 14.4699 8.36509 14.4643 8.16668 14.453C7.96827 14.4418 7.77508 14.4249 7.58711 14.4024C7.7333 14.4924 7.91605 14.5823 8.13535 14.6723C8.3651 14.7622 8.62617 14.8466 8.91856 14.9253C8.94989 14.9365 8.96556 14.959 8.96556 14.9928C8.96556 15.094 8.85591 15.1446 8.63661 15.1446ZM6.56893 13.8458C6.28698 13.5084 6.06768 13.1598 5.91103 12.8C5.68129 12.2378 5.50899 11.5462 5.39412 10.7253C5.31057 10.1293 5.22181 9.83133 5.12782 9.83133C5.04428 9.83133 4.92941 9.8988 4.78321 10.0337C4.64745 10.1687 4.57958 10.4554 4.57958 10.894C4.57958 11.7486 4.86153 12.4908 5.42544 13.1205C5.7074 13.4353 6.08856 13.6771 6.56893 13.8458Z" stroke="white" stroke-width="0.4" mask="url(#path-2-outside-1_1_305)"/>
<path d="M16.7201 13.7277C16.2501 13.7277 16.0152 13.4072 16.0152 12.7663C16.0152 12.5189 16.0831 12.2265 16.2188 11.8892C16.365 11.5406 16.5687 11.1751 16.8297 10.7928C16.8297 10.7928 16.7357 10.8884 16.5478 11.0795C16.3598 11.2707 16.1457 11.5124 15.9055 11.8048C15.8638 11.8498 15.8116 11.8723 15.7489 11.8723C15.7071 11.8723 15.6862 11.8442 15.6862 11.788C15.6862 11.7317 15.7332 11.6361 15.8272 11.5012L17.9889 8.76867C18.2604 8.43132 18.558 8.26265 18.8817 8.26265C19.1219 8.26265 19.242 8.36386 19.242 8.56627C19.242 8.64498 19.2107 8.71807 19.148 8.78554C18.9496 8.98795 18.7042 9.2747 18.4118 9.64578C18.1299 10.0169 17.8531 10.4161 17.5816 10.8434C17.3101 11.2707 17.0804 11.6811 16.8924 12.0747C16.7149 12.457 16.6261 12.7663 16.6261 13.0024C16.6261 13.2048 16.6887 13.306 16.8141 13.306C16.8872 13.306 17.002 13.2779 17.1587 13.2217C17.3153 13.1542 17.5242 13.0249 17.7852 12.8337C18.0463 12.6313 18.3596 12.3221 18.7251 11.906C18.7878 11.8386 18.9548 11.6361 19.2264 11.2988C19.4979 10.9614 19.8634 10.4779 20.3228 9.84819C21.1374 8.75743 21.67 8.21205 21.9206 8.21205C22.2652 8.21205 22.4532 8.36386 22.4845 8.66747C22.5054 8.76867 22.2861 9.1004 21.8266 9.66265C21.2314 10.4386 20.8241 10.9952 20.6048 11.3325C20.1975 11.9735 19.9939 12.4739 19.9939 12.8337C19.9939 13.0811 20.0722 13.2048 20.2289 13.2048C20.3855 13.2048 20.5839 13.1261 20.8241 12.9687C21.0747 12.8 21.3358 12.592 21.6073 12.3446C21.8788 12.0859 22.1399 11.8217 22.3905 11.5518C22.6516 11.2707 22.8761 11.012 23.0641 10.7759C23.1267 10.6972 23.1894 10.6578 23.2521 10.6578C23.3147 10.6578 23.346 10.6916 23.346 10.759C23.346 10.7815 23.3408 10.8153 23.3304 10.8602C23.3199 10.9052 23.2886 10.9558 23.2364 11.012C23.0693 11.2145 22.8552 11.4675 22.5942 11.7711C22.3331 12.0635 22.0511 12.3558 21.7483 12.6482C21.4454 12.9406 21.153 13.1823 20.8711 13.3735C20.5891 13.5647 20.349 13.6602 20.1505 13.6602C19.9104 13.6602 19.7015 13.5928 19.524 13.4578C19.3464 13.3116 19.2577 13.1149 19.2577 12.8675C19.2577 12.6201 19.2942 12.3727 19.3673 12.1253C19.4404 11.8667 19.4979 11.6474 19.5396 11.4675C19.0488 12.0859 18.6154 12.5582 18.2395 12.8843C17.874 13.2104 17.5659 13.4297 17.3153 13.5422C17.0647 13.6659 16.8663 13.7277 16.7201 13.7277Z" stroke="white" stroke-width="0.4" mask="url(#path-2-outside-1_1_305)"/>
<path d="M21.7296 16.7301C21.291 16.4715 21.0717 15.9823 21.0717 15.2627C21.0717 14.4867 21.6617 13.1598 22.8417 11.2819C23.9695 9.47149 24.7528 8.49317 25.1914 8.34699C25.2331 8.33574 25.2697 8.33012 25.301 8.33012C25.3323 8.31888 25.3637 8.31325 25.395 8.31325C25.5725 8.31325 25.6613 8.52129 25.6613 8.93735C25.7344 8.85863 25.8597 8.78554 26.0372 8.71807C26.2252 8.63936 26.4132 8.57751 26.6011 8.53253C26.7996 8.48755 26.9458 8.45944 27.0397 8.44819C27.4679 8.4257 27.8229 8.53815 28.1049 8.78554C28.3973 9.02169 28.5435 9.33655 28.5435 9.73012C28.5435 10.641 28.037 11.5237 27.0241 12.3783C26.1051 13.1542 25.2906 13.5422 24.5805 13.5422C24.1105 13.5422 23.7868 13.5141 23.6093 13.4578C23.3586 13.3791 23.1028 13.1711 22.8417 12.8337C22.7269 12.9349 22.6015 13.1092 22.4658 13.3566C22.33 13.5928 22.2047 13.8514 22.0898 14.1325C21.9645 14.4249 21.8653 14.7116 21.7922 14.9928C21.7087 15.2739 21.6669 15.51 21.6669 15.7012C21.6669 15.8924 21.7035 16.0498 21.7766 16.1735C21.8392 16.3084 21.9019 16.4321 21.9645 16.5446C21.9645 16.5558 21.9698 16.5614 21.9802 16.5614C21.9802 16.5727 21.9802 16.5783 21.9802 16.5783C21.9802 16.6345 21.9541 16.6795 21.9019 16.7133C21.8392 16.7582 21.7818 16.7639 21.7296 16.7301ZM24.3768 13.0699C24.9616 13.0699 25.6352 12.7494 26.3975 12.1084C27.2956 11.3438 27.7446 10.4948 27.7446 9.56145C27.7446 9.13414 27.4992 8.92048 27.0084 8.92048C26.5594 8.92048 26.1417 9.02731 25.7553 9.24096C25.6508 9.28594 25.4785 9.43213 25.2383 9.67952C25.0086 9.92691 24.7005 10.2643 24.3142 10.6916C23.4892 11.6137 23.0767 12.204 23.0767 12.4627C23.0767 12.6651 23.249 12.8281 23.5936 12.9518C23.8233 13.0305 24.0844 13.0699 24.3768 13.0699Z" stroke="white" stroke-width="0.4" mask="url(#path-2-outside-1_1_305)"/>
<path d="M29.3416 13.7614C29.0075 13.7614 28.7046 13.649 28.4331 13.4241C28.1616 13.188 28.0258 12.8787 28.0258 12.4964C28.0258 11.698 28.4801 10.7871 29.3886 9.76386C30.318 8.72932 31.1482 8.21205 31.8792 8.21205C32.1194 8.21205 32.3126 8.28514 32.4588 8.43133C32.6155 8.56627 32.6938 8.73494 32.6938 8.93735C32.6938 9.56707 32.2291 10.1855 31.2997 10.7928C30.4747 11.3325 29.7802 11.6024 29.2163 11.6024C29.1328 11.6024 29.0597 11.5912 28.997 11.5687C28.8404 11.8723 28.7621 12.1928 28.7621 12.5301C28.7621 13.1149 29.0179 13.4072 29.5296 13.4072C30.0518 13.4072 30.7253 13.0305 31.5503 12.2771C32.1873 11.7261 32.7303 11.1414 33.1794 10.5229C33.2734 10.388 33.3569 10.3205 33.43 10.3205C33.4927 10.3205 33.524 10.3542 33.524 10.4217C33.524 10.4892 33.4822 10.5847 33.3987 10.7084C33.1063 11.1245 32.793 11.5068 32.4588 11.8554C32.1247 12.204 31.7644 12.5245 31.378 12.8169C30.5739 13.4466 29.8951 13.7614 29.3416 13.7614ZM29.4356 11.2313C29.8325 11.2313 30.3494 11.0177 30.9864 10.5904C31.1952 10.4329 31.3989 10.2586 31.5973 10.0675C31.8061 9.86506 31.9732 9.66265 32.0985 9.46024C32.2343 9.25783 32.3022 9.07791 32.3022 8.92048C32.3022 8.7743 32.1925 8.70121 31.9732 8.70121C31.6599 8.70121 31.2213 8.95422 30.6574 9.46024C30.3859 9.70763 30.1249 9.97751 29.8742 10.2699C29.6236 10.5622 29.4095 10.8715 29.232 11.1976C29.2946 11.2201 29.3625 11.2313 29.4356 11.2313Z" stroke="white" stroke-width="0.4" mask="url(#path-2-outside-1_1_305)"/>
<path d="M35.7614 13.6265C35.3124 13.6265 35.0043 13.5028 34.8372 13.2554C34.6701 12.9968 34.5866 12.6538 34.5866 12.2265C34.5866 11.7542 34.7223 11.192 34.9939 10.5398C35.0983 10.2811 35.2079 10.0506 35.3228 9.84819C35.4377 9.63454 35.5578 9.43775 35.6831 9.25783C35.6413 9.26908 35.6048 9.2747 35.5734 9.2747C35.5421 9.2747 35.5108 9.2747 35.4794 9.2747C35.2288 9.2747 35.02 9.08353 34.8529 8.70121L33.6937 10.3205C33.0776 11.1863 32.7017 11.6193 32.5659 11.6193C32.5137 11.6193 32.4876 11.5968 32.4876 11.5518C32.4876 11.4956 32.5137 11.4225 32.5659 11.3325C32.5972 11.2651 32.6599 11.1751 32.7539 11.0627C33.1507 10.5679 33.5162 10.0787 33.8504 9.59518C34.1845 9.11165 34.4613 8.63936 34.6806 8.17831C34.9208 7.2 35.2236 6.71084 35.5891 6.71084C35.8293 6.71084 35.9494 6.82892 35.9494 7.06506C35.9494 7.27871 35.8188 7.55984 35.5578 7.90843C35.3071 8.25703 35.1818 8.43695 35.1818 8.44819C35.1818 8.68434 35.3437 8.80241 35.6674 8.80241C35.8554 8.80241 36.0642 8.72932 36.294 8.58313L36.7013 8.31325C36.7221 8.30201 36.7535 8.29639 36.7952 8.29639C36.9206 8.29639 37.0302 8.35261 37.1242 8.46506C37.2182 8.57751 37.2495 8.67871 37.2182 8.76867L36.1373 10.2361C35.469 11.1582 35.1348 11.9004 35.1348 12.4627C35.1348 12.9687 35.3646 13.2217 35.8241 13.2217C36.1373 13.2217 36.4715 13.1205 36.8266 12.9181C37.1921 12.7157 37.5419 12.4683 37.8761 12.1759C38.2207 11.8723 38.5079 11.5799 38.7376 11.2988L39.1135 10.8265C39.1344 10.804 39.1605 10.7759 39.1919 10.7422C39.2232 10.7084 39.2493 10.6916 39.2702 10.6916C39.3433 10.6916 39.3798 10.7309 39.3798 10.8096C39.3798 10.8321 39.3694 10.8715 39.3485 10.9277C39.3276 10.9839 39.2911 11.0458 39.2389 11.1133L38.7376 11.7205C38.4974 12.0129 38.1998 12.3108 37.8447 12.6145C37.5001 12.9068 37.1399 13.1486 36.7639 13.3398C36.3984 13.5309 36.0642 13.6265 35.7614 13.6265Z" stroke="white" stroke-width="0.4" mask="url(#path-2-outside-1_1_305)"/>
<path d="M36.0677 17C35.7544 17 35.4881 16.8594 35.2688 16.5783C35.0495 16.2972 34.9347 15.9936 34.9242 15.6675C34.9555 15.5325 35.0025 15.4651 35.0652 15.4651C35.1279 15.4651 35.1644 15.5494 35.1748 15.7181C35.1853 15.898 35.2688 16.0723 35.4255 16.241C35.5821 16.4096 35.7388 16.494 35.8954 16.494C36.783 16.494 37.5924 15.9036 38.3234 14.7229C38.5218 14.408 38.7672 13.9526 39.0596 13.3566C39.352 12.7494 39.6757 11.9904 40.0308 11.0795L40.8766 8.88675C39.8323 8.8755 39.3102 8.74056 39.3102 8.48193C39.3102 8.35823 39.3624 8.26265 39.4668 8.19518C39.5713 8.11647 39.6548 8.07711 39.7175 8.07711C39.7279 8.07711 39.8584 8.08273 40.1091 8.09398C40.3597 8.09398 40.72 8.0996 41.1899 8.11084C42.2133 5.65944 43.1532 4.43373 44.0095 4.43373C44.3436 4.43373 44.6726 4.60241 44.9963 4.93976C45.0799 5.02972 45.1216 5.14779 45.1216 5.29398C45.1216 5.64257 45.0276 5.81687 44.8397 5.81687C44.7875 5.81687 44.7352 5.77189 44.683 5.68193C44.6413 5.60321 44.5734 5.54137 44.4794 5.49639C44.3854 5.44016 44.2966 5.41205 44.2131 5.41205C43.8998 5.41205 43.6231 5.54137 43.3829 5.8C43.1532 6.04739 42.9339 6.37349 42.725 6.77831C42.5266 7.18313 42.3125 7.62731 42.0828 8.11084H42.2707C43.409 8.11084 44.1661 8.09398 44.542 8.06024C44.5838 8.07149 44.6047 8.09398 44.6047 8.12771C44.6047 8.21767 44.234 8.34137 43.4925 8.4988C43.2001 8.54378 42.913 8.59438 42.631 8.6506C42.3491 8.70683 42.0619 8.76305 41.7695 8.81928C41.6337 9.13414 41.4666 9.51084 41.2682 9.9494C41.0698 10.3767 40.8453 10.8546 40.5947 11.3831C40.1039 12.3727 39.7018 13.1598 39.3885 13.7446C39.0752 14.3293 38.8559 14.7173 38.7306 14.9084C37.8221 16.3028 36.9345 17 36.0677 17Z" stroke="white" stroke-width="0.4" mask="url(#path-2-outside-1_1_305)"/>
<path d="M43.5738 13.6265C43.3232 13.6265 43.0725 13.5309 42.8219 13.3398C42.5713 13.1486 42.4303 12.9237 42.399 12.6651C42.2946 11.7992 42.801 10.7703 43.9184 9.57831C45.0254 8.38635 46.0226 7.79036 46.9103 7.79036C47.1505 7.79036 47.3384 7.85221 47.4742 7.9759C47.5473 8.05462 47.5995 8.16145 47.6308 8.29639C47.6726 8.43132 47.7039 8.4988 47.7248 8.4988C47.7666 8.4988 47.8031 8.49317 47.8345 8.48193C47.8658 8.45944 47.9024 8.44819 47.9441 8.44819C48.0694 8.44819 48.1791 8.4988 48.2731 8.6C48.3671 8.7012 48.4193 8.79116 48.4297 8.86988C48.4402 8.89237 48.106 9.449 47.4272 10.5398C46.7484 11.608 46.4404 12.3333 46.503 12.7157C46.5552 12.9743 46.6701 13.1036 46.8476 13.1036C47.3907 13.1036 48.3827 12.1365 49.8238 10.2024C49.8552 10.1574 49.8865 10.1349 49.9178 10.1349C49.97 10.1349 49.9961 10.1743 49.9961 10.253C49.9961 10.343 49.9491 10.4554 49.8552 10.5904C48.5289 12.5133 47.5107 13.4747 46.8006 13.4747C46.7066 13.4747 46.6179 13.4578 46.5343 13.4241C46.0749 13.2329 45.8451 12.8618 45.8451 12.3108C45.8451 12.1197 45.866 11.9285 45.9078 11.7373L44.9366 12.7494C44.6442 13.0643 44.3779 13.2892 44.1377 13.4241C43.908 13.559 43.72 13.6265 43.5738 13.6265ZM43.4328 13.2554C44.0385 13.2554 44.8635 12.5414 45.9078 11.1133L47.5682 8.6506C47.4846 8.49317 47.3489 8.41446 47.1609 8.41446C46.5239 8.41446 45.6624 8.96546 44.5763 10.0675C43.4485 11.192 42.942 12.1197 43.0569 12.8506C43.1091 13.1205 43.2344 13.2554 43.4328 13.2554Z" stroke="white" stroke-width="0.4" mask="url(#path-2-outside-1_1_305)"/>
<path d="M50.7811 13.5759C50.2902 13.5759 49.9247 13.4016 49.6846 13.053C49.4548 12.7044 49.2668 12.2209 49.1207 11.6024C48.9327 11.8048 48.8021 11.906 48.729 11.906C48.6768 11.906 48.6507 11.861 48.6507 11.7711C48.6507 11.7036 48.6768 11.6418 48.729 11.5855C48.729 11.5855 48.8596 11.4112 49.1207 11.0627C49.3922 10.7141 49.8464 10.2249 50.4834 9.59518L52.4571 7.60482C52.7286 7.32369 52.9427 7.11004 53.0994 6.96386C53.2664 6.81767 53.3865 6.74458 53.4596 6.74458C53.7938 6.74458 53.9609 6.87952 53.9609 7.1494C53.9609 7.28434 53.893 7.44177 53.7573 7.62169C53.6528 7.75663 53.5745 7.86345 53.5223 7.94217C53.4805 8.00964 53.4544 8.049 53.444 8.06024C53.256 8.40884 53.0837 9.03293 52.9271 9.93253C52.8122 10.596 52.713 11.1414 52.6294 11.5687C52.5459 11.996 52.478 12.3052 52.4258 12.4964C52.8644 12.4851 53.2978 12.339 53.7259 12.0578C54.1541 11.7767 54.6136 11.3157 55.1044 10.6747C55.1253 10.6522 55.1566 10.6185 55.1984 10.5735C55.2401 10.5285 55.2819 10.506 55.3237 10.506C55.3863 10.506 55.4177 10.5341 55.4177 10.5904C55.4177 10.6466 55.402 10.7028 55.3707 10.759C55.3393 10.8153 55.308 10.8659 55.2767 10.9108C54.953 11.3269 54.6501 11.6699 54.3682 11.9398C54.0862 12.1984 53.7886 12.4064 53.4753 12.5639C53.162 12.71 52.7913 12.8337 52.3631 12.9349L51.8619 13.2892C51.7261 13.3904 51.5643 13.4635 51.3763 13.5084C51.1883 13.5534 50.9899 13.5759 50.7811 13.5759ZM50.969 12.7157C51.2092 12.7157 51.4076 12.6538 51.5643 12.5301C51.6791 12.4627 51.7888 12.2771 51.8932 11.9735C52.0081 11.6586 52.1177 11.2707 52.2222 10.8096C52.3057 10.4161 52.3684 10.0337 52.4101 9.66265C52.4623 9.28032 52.5093 8.91486 52.5511 8.56627L52.6138 7.99277C52.3736 8.18394 52.0707 8.45944 51.7052 8.81928C51.3397 9.17912 50.9795 9.55582 50.6244 9.9494C50.2694 10.343 50.0396 10.6353 49.9352 10.8265C49.8308 11.0064 49.7733 11.1414 49.7629 11.2313C49.7211 11.6811 49.8203 12.041 50.0605 12.3108C50.3111 12.5807 50.614 12.7157 50.969 12.7157Z" stroke="white" stroke-width="0.4" mask="url(#path-2-outside-1_1_305)"/>
<path d="M55.5802 13.6434C55.246 13.6434 54.9797 13.559 54.7813 13.3904C54.5933 13.2104 54.4993 12.8956 54.4993 12.4458C54.4993 12.1871 54.5724 11.861 54.7186 11.4675C54.8648 11.0627 55.0476 10.6297 55.2669 10.1687C55.4862 9.70763 55.7055 9.25221 55.9248 8.80241C55.789 8.83614 55.6689 8.85301 55.5645 8.85301C55.2512 8.85301 55.0946 8.72369 55.0946 8.46506C55.0946 8.34137 55.1364 8.24578 55.2199 8.17831C55.3139 8.11084 55.3974 8.07149 55.4705 8.06024C55.4705 8.06024 55.481 8.06024 55.5019 8.06024C55.5332 8.06024 55.5697 8.05462 55.6115 8.04337H56.52C56.708 7.78474 56.9012 7.50924 57.0996 7.21687C57.3816 6.83454 57.6061 6.60964 57.7732 6.54217H57.8202C57.8933 6.54217 57.9977 6.58153 58.1334 6.66024C58.3005 6.76145 58.3841 6.86265 58.3841 6.96386C58.3841 7.11004 58.1334 7.48675 57.6322 8.09398C57.7262 8.10522 57.8619 8.11084 58.0395 8.11084C58.217 8.11084 58.4363 8.11084 58.6974 8.11084C58.8227 8.11084 59.0002 8.11084 59.2299 8.11084C59.4701 8.11084 59.7155 8.11084 59.9662 8.11084C60.2272 8.0996 60.4518 8.09398 60.6397 8.09398C60.8277 8.08273 60.9321 8.07711 60.953 8.07711C60.9843 8.08835 61 8.10522 61 8.12771C61 8.22892 60.3839 8.36386 59.1516 8.53253C58.452 8.63374 57.9142 8.71245 57.5382 8.76867C57.1727 8.8249 56.9743 8.85863 56.943 8.86988C56.7968 9.00482 56.6192 9.23534 56.4104 9.56145C56.2015 9.88755 55.9927 10.253 55.7838 10.6578C55.575 11.0627 55.3974 11.4506 55.2512 11.8217C55.1155 12.1815 55.0476 12.4627 55.0476 12.6651C55.0476 12.845 55.1103 12.9968 55.2356 13.1205C55.3609 13.2329 55.5645 13.2892 55.8465 13.2892C56.0344 13.2892 56.259 13.2442 56.52 13.1542C56.7811 13.0643 57.0265 12.9631 57.2562 12.8506C57.4964 12.7269 57.6687 12.6313 57.7732 12.5639C58.0447 12.3839 58.3423 12.1478 58.666 11.8554C59.0002 11.5518 59.3292 11.2088 59.6529 10.8265C59.7991 10.6691 59.8983 10.5904 59.9505 10.5904C59.9818 10.5904 59.9975 10.6129 59.9975 10.6578C59.9975 10.7478 59.9192 10.894 59.7625 11.0964C59.5119 11.4225 59.2299 11.7373 58.9167 12.041C58.6138 12.3333 58.2744 12.6032 57.8985 12.8506C57.4703 13.1317 57.0578 13.3341 56.661 13.4578C56.2746 13.5815 55.9144 13.6434 55.5802 13.6434Z" stroke="white" stroke-width="0.4" mask="url(#path-2-outside-1_1_305)"/>
</svg>
