<svg width="14" height="14" viewBox="0 0 14 14" fill="none" xmlns="http://www.w3.org/2000/svg">
<path fill-rule="evenodd" clip-rule="evenodd" d="M7.50733 1.29389L9.05132 4.39989C9.12866 4.55655 9.27799 4.66589 9.45133 4.69122L12.908 5.19055C13.048 5.20922 13.174 5.28255 13.26 5.39455C13.4213 5.60455 13.3967 5.90189 13.2033 6.08255L10.698 8.50522C10.5707 8.62522 10.514 8.80122 10.5473 8.97255L11.1473 12.3912C11.1893 12.6746 10.996 12.9399 10.7127 12.9859C10.5953 13.0039 10.4753 12.9852 10.3687 12.9326L7.28999 11.3186C7.13533 11.2346 6.94999 11.2346 6.79533 11.3186L3.69399 12.9412C3.43466 13.0732 3.11733 12.9752 2.97599 12.7212C2.92199 12.6186 2.90333 12.5019 2.92199 12.3879L3.52199 8.96922C3.55199 8.79855 3.49533 8.62322 3.37133 8.50255L0.852659 6.08055C0.647326 5.87655 0.645992 5.54455 0.850659 5.33922C0.851326 5.33855 0.851992 5.33722 0.852659 5.33655C0.937326 5.25989 1.04133 5.20855 1.15399 5.18855L4.61133 4.68922C4.78399 4.66189 4.93266 4.55389 5.01133 4.39722L6.55399 1.29389C6.61599 1.16789 6.72599 1.07122 6.85933 1.02722C6.99333 0.982553 7.13999 0.99322 7.26599 1.05655C7.36933 1.10789 7.45399 1.19122 7.50733 1.29389Z" stroke="#F18749" stroke-linecap="round" stroke-linejoin="round"/>
</svg>
