<svg width="23" height="24" viewBox="0 0 23 24" fill="none" xmlns="http://www.w3.org/2000/svg">
<path d="M11.3338 0.8C17.1093 0.8 21.8671 5.77001 21.8671 12C21.8671 16.5152 19.3598 20.3809 15.7783 22.1563C15.658 22.2159 15.5514 22.2008 15.4563 22.1342C15.3516 22.061 15.2637 21.9217 15.2637 21.7374V15.9494C15.2637 15.6753 15.4859 15.4531 15.76 15.4531C16.8194 15.4531 17.7123 14.6628 17.8408 13.6112L17.888 13.2257C18.0425 11.9622 17.0566 10.8484 15.7837 10.8484C15.4965 10.8484 15.2637 10.6156 15.2637 10.3284V9.73594C15.2637 9.33225 15.3274 9.21015 15.3509 9.18062L15.3513 9.1802C15.3549 9.1756 15.3697 9.15672 15.4301 9.13439C15.5021 9.10781 15.6362 9.07813 15.8671 9.07813H16.0213C17.1995 9.07813 18.1546 8.12301 18.1546 6.9448V6.74965C18.1546 5.69482 17.3652 4.7591 16.2442 4.70564C15.9222 4.69029 15.5573 4.67969 15.1721 4.67969C13.916 4.67969 12.7817 5.08992 11.9639 5.94605C11.149 6.79911 10.7329 8.006 10.7329 9.44062V10.4357C10.7329 10.6662 10.5461 10.8531 10.3155 10.8531C9.20132 10.8531 8.29808 11.7563 8.29808 12.8705V13.4404C8.29808 14.5546 9.20131 15.4578 10.3155 15.4578C10.5461 15.4578 10.7329 15.6447 10.7329 15.8752V23.182C5.23187 22.8516 0.800427 18.0126 0.800427 12C0.800427 5.77001 5.55816 0.8 11.3338 0.8Z" stroke="white" stroke-opacity="0.75" stroke-width="1.6"/>
</svg>
