<svg width="20" height="19" viewBox="0 0 20 19" fill="none" xmlns="http://www.w3.org/2000/svg">
<path d="M17.412 10.1493L17.4487 10.1142L17.4811 10.075L17.5123 10.0372C18.2826 9.10562 18.75 7.9213 18.75 6.63112C18.75 3.52801 16.0984 1.125 12.9713 1.125C11.8895 1.125 10.8713 1.40946 10 1.90776C9.12867 1.40946 8.11049 1.125 7.02866 1.125C3.90156 1.125 1.25 3.52801 1.25 6.63112C1.25 8.08636 1.84389 9.40355 2.79383 10.378L2.79383 10.378L2.80654 10.391L2.81959 10.4044L2.83321 10.4172L9.43813 16.637L10.0431 17.2067L10.6432 16.6319L17.412 10.1493Z" stroke="#383838" stroke-width="1.75"/>
</svg>
