<svg width="84" height="16" viewBox="0 0 84 16" fill="none" xmlns="http://www.w3.org/2000/svg">
<path d="M11.9457 9.54675C11.773 9.71408 11.6937 9.95608 11.733 10.1934L12.3257 13.4734C12.3757 13.7514 12.2583 14.0327 12.0257 14.1934C11.7977 14.3601 11.4943 14.3801 11.2457 14.2467L8.293 12.7067C8.19033 12.6521 8.07633 12.6227 7.95967 12.6194H7.779C7.71633 12.6287 7.655 12.6487 7.599 12.6794L4.64567 14.2267C4.49967 14.3001 4.33433 14.3261 4.17233 14.3001C3.77767 14.2254 3.51433 13.8494 3.579 13.4527L4.17233 10.1727C4.21167 9.93341 4.13233 9.69008 3.95967 9.52008L1.55233 7.18675C1.351 6.99141 1.281 6.69808 1.373 6.43341C1.46233 6.16941 1.69033 5.97675 1.96567 5.93341L5.279 5.45275C5.531 5.42675 5.75233 5.27341 5.86567 5.04675L7.32567 2.05341C7.36033 1.98675 7.405 1.92541 7.459 1.87341L7.519 1.82675C7.55033 1.79208 7.58633 1.76341 7.62633 1.74008L7.699 1.71341L7.81234 1.66675H8.093C8.34367 1.69275 8.56433 1.84275 8.67967 2.06675L10.159 5.04675C10.2657 5.26475 10.473 5.41608 10.7123 5.45275L14.0257 5.93341C14.3057 5.97341 14.5397 6.16675 14.6323 6.43341C14.7197 6.70075 14.6443 6.99408 14.439 7.18675L11.9457 9.54675Z" fill="#F58735"/>
<path d="M28.9457 9.54675C28.773 9.71408 28.6937 9.95608 28.733 10.1934L29.3257 13.4734C29.3757 13.7514 29.2583 14.0327 29.0257 14.1934C28.7977 14.3601 28.4943 14.3801 28.2457 14.2467L25.293 12.7067C25.1903 12.6521 25.0763 12.6227 24.9597 12.6194H24.779C24.7163 12.6287 24.655 12.6487 24.599 12.6794L21.6457 14.2267C21.4997 14.3001 21.3343 14.3261 21.1723 14.3001C20.7777 14.2254 20.5143 13.8494 20.579 13.4527L21.1723 10.1727C21.2117 9.93341 21.1323 9.69008 20.9597 9.52008L18.5523 7.18675C18.351 6.99141 18.281 6.69808 18.373 6.43341C18.4623 6.16941 18.6903 5.97675 18.9657 5.93341L22.279 5.45275C22.531 5.42675 22.7523 5.27341 22.8657 5.04675L24.3257 2.05341C24.3603 1.98675 24.405 1.92541 24.459 1.87341L24.519 1.82675C24.5503 1.79208 24.5863 1.76341 24.6263 1.74008L24.699 1.71341L24.8123 1.66675H25.093C25.3437 1.69275 25.5643 1.84275 25.6797 2.06675L27.159 5.04675C27.2657 5.26475 27.473 5.41608 27.7123 5.45275L31.0257 5.93341C31.3057 5.97341 31.5397 6.16675 31.6323 6.43341C31.7197 6.70075 31.6443 6.99408 31.439 7.18675L28.9457 9.54675Z" fill="#F58735"/>
<path d="M45.9457 9.54675C45.773 9.71408 45.6937 9.95608 45.733 10.1934L46.3257 13.4734C46.3757 13.7514 46.2583 14.0327 46.0257 14.1934C45.7977 14.3601 45.4943 14.3801 45.2457 14.2467L42.293 12.7067C42.1903 12.6521 42.0763 12.6227 41.9597 12.6194H41.779C41.7163 12.6287 41.655 12.6487 41.599 12.6794L38.6457 14.2267C38.4997 14.3001 38.3343 14.3261 38.1723 14.3001C37.7777 14.2254 37.5143 13.8494 37.579 13.4527L38.1723 10.1727C38.2117 9.93341 38.1323 9.69008 37.9597 9.52008L35.5523 7.18675C35.351 6.99141 35.281 6.69808 35.373 6.43341C35.4623 6.16941 35.6903 5.97675 35.9657 5.93341L39.279 5.45275C39.531 5.42675 39.7523 5.27341 39.8657 5.04675L41.3257 2.05341C41.3603 1.98675 41.405 1.92541 41.459 1.87341L41.519 1.82675C41.5503 1.79208 41.5863 1.76341 41.6263 1.74008L41.699 1.71341L41.8123 1.66675H42.093C42.3437 1.69275 42.5643 1.84275 42.6797 2.06675L44.159 5.04675C44.2657 5.26475 44.473 5.41608 44.7123 5.45275L48.0257 5.93341C48.3057 5.97341 48.5397 6.16675 48.6323 6.43341C48.7197 6.70075 48.6443 6.99408 48.439 7.18675L45.9457 9.54675Z" fill="#F58735"/>
<path fill-rule="evenodd" clip-rule="evenodd" d="M59.4761 2.29389L61.0201 5.39989C61.0974 5.55655 61.2467 5.66589 61.4201 5.69122L64.8767 6.19055C65.0167 6.20922 65.1427 6.28255 65.2287 6.39455C65.3901 6.60455 65.3654 6.90189 65.1721 7.08255L62.6667 9.50522C62.5394 9.62522 62.4827 9.80122 62.5161 9.97255L63.1161 13.3912C63.1581 13.6746 62.9647 13.9399 62.6814 13.9859C62.5641 14.0039 62.4441 13.9852 62.3374 13.9326L59.2587 12.3186C59.1041 12.2346 58.9187 12.2346 58.7641 12.3186L55.6627 13.9412C55.4034 14.0732 55.0861 13.9752 54.9447 13.7212C54.8907 13.6186 54.8721 13.5019 54.8907 13.3879L55.4907 9.96922C55.5207 9.79855 55.4641 9.62322 55.3401 9.50255L52.8214 7.08055C52.6161 6.87655 52.6147 6.54455 52.8194 6.33922C52.8201 6.33855 52.8207 6.33722 52.8214 6.33655C52.9061 6.25989 53.0101 6.20855 53.1227 6.18855L56.5801 5.68922C56.7527 5.66189 56.9014 5.55389 56.9801 5.39722L58.5227 2.29389C58.5847 2.16789 58.6947 2.07122 58.8281 2.02722C58.9621 1.98255 59.1087 1.99322 59.2347 2.05655C59.3381 2.10789 59.4227 2.19122 59.4761 2.29389Z" fill="#F18749" stroke="#F58735" stroke-linecap="round" stroke-linejoin="round"/>
<path fill-rule="evenodd" clip-rule="evenodd" d="M76.4761 2.29389L78.0201 5.39989C78.0974 5.55655 78.2467 5.66589 78.4201 5.69122L81.8767 6.19055C82.0167 6.20922 82.1427 6.28255 82.2287 6.39455C82.3901 6.60455 82.3654 6.90189 82.1721 7.08255L79.6667 9.50522C79.5394 9.62522 79.4827 9.80122 79.5161 9.97255L80.1161 13.3912C80.1581 13.6746 79.9647 13.9399 79.6814 13.9859C79.5641 14.0039 79.4441 13.9852 79.3374 13.9326L76.2587 12.3186C76.1041 12.2346 75.9187 12.2346 75.7641 12.3186L72.6627 13.9412C72.4034 14.0732 72.0861 13.9752 71.9447 13.7212C71.8907 13.6186 71.8721 13.5019 71.8907 13.3879L72.4907 9.96922C72.5207 9.79855 72.4641 9.62322 72.3401 9.50255L69.8214 7.08055C69.6161 6.87655 69.6147 6.54455 69.8194 6.33922C69.8201 6.33855 69.8207 6.33722 69.8214 6.33655C69.9061 6.25989 70.0101 6.20855 70.1227 6.18855L73.5801 5.68922C73.7527 5.66189 73.9014 5.55389 73.9801 5.39722L75.5227 2.29389C75.5847 2.16789 75.6947 2.07122 75.8281 2.02722C75.9621 1.98255 76.1087 1.99322 76.2347 2.05655C76.3381 2.10789 76.4227 2.19122 76.4761 2.29389Z" stroke="#F58735" stroke-linecap="round" stroke-linejoin="round"/>
</svg>
