<svg width="14" height="14" viewBox="0 0 14 14" fill="none" xmlns="http://www.w3.org/2000/svg">
<path d="M10.9769 8.54675C10.8042 8.71408 10.7249 8.95608 10.7642 9.19341L11.3569 12.4734C11.4069 12.7514 11.2896 13.0327 11.0569 13.1934C10.8289 13.3601 10.5256 13.3801 10.2769 13.2467L7.32424 11.7067C7.22157 11.6521 7.10757 11.6227 6.9909 11.6194H6.81024C6.74757 11.6287 6.68624 11.6487 6.63024 11.6794L3.6769 13.2267C3.5309 13.3001 3.36557 13.3261 3.20357 13.3001C2.8089 13.2254 2.54557 12.8494 2.61024 12.4527L3.20357 9.17275C3.2429 8.93341 3.16357 8.69008 2.9909 8.52008L0.583569 6.18675C0.382236 5.99141 0.312236 5.69808 0.404236 5.43341C0.493569 5.16941 0.721569 4.97675 0.996903 4.93341L4.31024 4.45275C4.56224 4.42675 4.78357 4.27341 4.8969 4.04675L6.3569 1.05341C6.39157 0.986748 6.43624 0.925415 6.49024 0.873415L6.55024 0.826748C6.58157 0.792081 6.61757 0.763415 6.65757 0.740081L6.73024 0.713415L6.84357 0.666748H7.12424C7.3749 0.692748 7.59557 0.842748 7.7109 1.06675L9.19024 4.04675C9.2969 4.26475 9.50424 4.41608 9.74357 4.45275L13.0569 4.93341C13.3369 4.97341 13.5709 5.16675 13.6636 5.43341C13.7509 5.70075 13.6756 5.99408 13.4702 6.18675L10.9769 8.54675Z" fill="#F18749"/>
</svg>
