<svg width="122" height="39" viewBox="0 0 122 39" fill="none" xmlns="http://www.w3.org/2000/svg">
<path d="M117.481 0H4.51852C3.32013 0 2.17083 0.513615 1.32344 1.42785C0.476057 2.34209 0 3.58207 0 4.875L0 34.125C0 35.4179 0.476057 36.6579 1.32344 37.5721C2.17083 38.4864 3.32013 39 4.51852 39H117.481C118.68 39 119.829 38.4864 120.677 37.5721C121.524 36.6579 122 35.4179 122 34.125V4.875C122 3.58207 121.524 2.34209 120.677 1.42785C119.829 0.513615 118.68 0 117.481 0Z" fill="black"/>
<path d="M61.3726 21.0764C60.614 21.0782 59.8729 21.3049 59.243 21.7278C58.6132 22.1508 58.1229 22.751 57.8342 23.4525C57.5455 24.1541 57.4713 24.9256 57.621 25.6693C57.7707 26.413 58.1376 27.0957 58.6752 27.631C59.2129 28.1662 59.8972 28.53 60.6416 28.6764C61.386 28.8227 62.1571 28.7451 62.8574 28.4532C63.5576 28.1614 64.1556 27.6684 64.5758 27.0367C64.9959 26.405 65.2193 25.6629 65.2177 24.9042C65.2252 24.3979 65.1308 23.8953 64.94 23.4263C64.7492 22.9572 64.4659 22.5314 64.107 22.1742C63.7481 21.817 63.321 21.5357 62.851 21.3471C62.3811 21.1585 61.8781 21.0664 61.3718 21.0764H61.3726ZM61.3726 27.228C60.9075 27.2605 60.4433 27.1523 60.0405 26.9176C59.6376 26.6828 59.3147 26.3323 59.1137 25.9116C58.9128 25.4908 58.843 25.0194 58.9135 24.5585C58.984 24.0976 59.1915 23.6686 59.5091 23.3272C59.8267 22.9858 60.2396 22.7478 60.6942 22.6442C61.1488 22.5406 61.6241 22.5762 62.0582 22.7463C62.4923 22.9164 62.8652 23.2131 63.1285 23.598C63.3917 23.9828 63.5331 24.438 63.5342 24.9042C63.5486 25.1996 63.5037 25.4949 63.4023 25.7727C63.3008 26.0505 63.1447 26.3052 62.9432 26.5217C62.7418 26.7383 62.4991 26.9123 62.2293 27.0336C61.9596 27.1549 61.6683 27.221 61.3726 27.228V27.228ZM52.9784 21.0764C52.2197 21.0783 51.4787 21.3052 50.849 21.7282C50.2193 22.1513 49.7291 22.7515 49.4406 23.4531C49.152 24.1547 49.0779 24.9261 49.2277 25.6698C49.3775 26.4135 49.7444 27.0961 50.2821 27.6312C50.8198 28.1664 51.5041 28.5301 52.2484 28.6764C52.9928 28.8227 53.7639 28.745 54.4641 28.4531C55.1643 28.1613 55.7623 27.6683 56.1824 27.0366C56.6025 26.4049 56.8258 25.6628 56.8242 24.9042C56.8318 24.3979 56.7374 23.8953 56.5465 23.4263C56.3557 22.9572 56.0724 22.5314 55.7135 22.1742C55.3546 21.817 54.9275 21.5357 54.4576 21.3471C53.9877 21.1585 53.4846 21.0664 52.9784 21.0764V21.0764ZM52.9784 27.228C52.5132 27.2605 52.0491 27.1523 51.6462 26.9176C51.2434 26.6828 50.9205 26.3323 50.7195 25.9116C50.5185 25.4908 50.4487 25.0194 50.5192 24.5585C50.5897 24.0976 50.7973 23.6686 51.1148 23.3272C51.4324 22.9858 51.8453 22.7478 52.2999 22.6442C52.7545 22.5406 53.2298 22.5762 53.6639 22.7463C54.0981 22.9164 54.471 23.2131 54.7342 23.598C54.9975 23.9828 55.1388 24.438 55.14 24.9042C55.1544 25.1996 55.1095 25.4949 55.008 25.7727C54.9065 26.0505 54.7504 26.3052 54.549 26.5217C54.3476 26.7383 54.1048 26.9123 53.8351 27.0336C53.5653 27.1549 53.274 27.221 52.9784 27.228V27.228ZM42.9989 22.2562V23.8775H46.8898C46.8288 24.641 46.5114 25.3616 45.9891 25.922C45.5989 26.3197 45.1294 26.631 44.6112 26.8358C44.093 27.0406 43.5376 27.1343 42.9809 27.1109C41.8343 27.1109 40.7347 26.6554 39.9239 25.8446C39.1132 25.0339 38.6577 23.9342 38.6577 22.7876C38.6577 21.6411 39.1132 20.5414 39.9239 19.7307C40.7347 18.9199 41.8343 18.4644 42.9809 18.4644C44.0801 18.4481 45.1415 18.8655 45.9351 19.6263L47.079 18.4824C46.5421 17.9515 45.9048 17.533 45.2042 17.2516C44.5036 16.9701 43.7539 16.8313 42.9989 16.8432C42.1965 16.8093 41.3956 16.938 40.6442 17.2216C39.8928 17.5053 39.2066 17.938 38.6269 18.4938C38.0471 19.0495 37.5858 19.7168 37.2706 20.4555C36.9554 21.1942 36.793 21.989 36.793 22.7921C36.793 23.5953 36.9554 24.3901 37.2706 25.1288C37.5858 25.8675 38.0471 26.5348 38.6269 27.0905C39.2066 27.6463 39.8928 28.079 40.6442 28.3626C41.3956 28.6463 42.1965 28.775 42.9989 28.7411C43.7692 28.7717 44.5373 28.6391 45.2528 28.352C45.9682 28.0648 46.6148 27.6296 47.1502 27.0748C48.0963 26.036 48.6006 24.6694 48.5561 23.265C48.559 22.927 48.5316 22.5894 48.4742 22.2562H42.9989ZM83.8083 23.5172C83.5732 22.8263 83.1339 22.223 82.5485 21.7871C81.9631 21.3513 81.2592 21.1035 80.5299 21.0764C80.0372 21.0754 79.5496 21.1755 79.0971 21.3705C78.6447 21.5654 78.237 21.8511 77.8994 22.2099C77.5617 22.5687 77.3012 22.9929 77.134 23.4563C76.9668 23.9197 76.8964 24.4125 76.9272 24.9042C76.9195 25.7264 77.178 26.529 77.6641 27.1922C78.1501 27.8553 78.8377 28.3434 79.624 28.5836C80.4104 28.8238 81.2534 28.8031 82.027 28.5247C82.8006 28.2462 83.4634 27.725 83.9164 27.0388L82.6104 26.1381C82.4157 26.4628 82.1395 26.7309 81.8091 26.9158C81.4788 27.1006 81.1058 27.1958 80.7272 27.1919C80.337 27.208 79.951 27.1056 79.62 26.8982C79.289 26.6909 79.0285 26.3882 78.8727 26.0301L83.9975 23.9135L83.8083 23.5172V23.5172ZM78.5844 24.7961C78.5662 24.5164 78.6039 24.2358 78.6955 23.9708C78.787 23.7058 78.9305 23.4617 79.1175 23.2529C79.3046 23.044 79.5314 22.8746 79.7848 22.7545C80.0381 22.6344 80.3129 22.5661 80.5929 22.5535C80.8831 22.5358 81.1721 22.6041 81.4237 22.7499C81.6752 22.8957 81.8781 23.1125 82.007 23.3731L78.5844 24.7961ZM74.4233 28.5069H76.1076V17.2485H74.4233V28.5069ZM71.6673 21.932H71.6042C71.3485 21.6536 71.0361 21.4333 70.6882 21.2857C70.3402 21.1381 69.9646 21.0667 69.5867 21.0764C68.6025 21.1241 67.6743 21.5487 66.9946 22.2622C66.3149 22.9757 65.9357 23.9233 65.9357 24.9087C65.9357 25.8941 66.3149 26.8418 66.9946 27.5553C67.6743 28.2687 68.6025 28.6933 69.5867 28.7411C69.9686 28.7487 70.3474 28.672 70.6962 28.5163C71.0449 28.3606 71.355 28.1298 71.6042 27.8404H71.6673V28.3898C71.6673 29.8579 70.8837 30.6415 69.6228 30.6415C69.2015 30.6322 68.7926 30.498 68.4478 30.2559C68.103 30.0137 67.838 29.6746 67.6863 29.2815L66.2272 29.8849C66.497 30.5625 66.966 31.1422 67.5723 31.5474C68.1786 31.9527 68.8936 32.1644 69.6228 32.1546C71.5952 32.1546 73.2254 30.9928 73.2254 28.1647V21.3015H71.6673V21.932V21.932ZM69.7308 27.228C69.1383 27.1945 68.5811 26.9356 68.1735 26.5044C67.7658 26.0731 67.5387 25.5022 67.5387 24.9087C67.5387 24.3153 67.7658 23.7444 68.1735 23.3131C68.5811 22.8818 69.1383 22.6229 69.7308 22.5895C70.0193 22.6019 70.3022 22.6723 70.5629 22.7963C70.8236 22.9204 71.0567 23.0956 71.2483 23.3115C71.4399 23.5275 71.5861 23.7798 71.6782 24.0534C71.7703 24.327 71.8064 24.6164 71.7844 24.9042C71.8089 25.1931 71.7747 25.4839 71.6836 25.7591C71.5926 26.0343 71.4467 26.2882 71.2547 26.5054C71.0628 26.7226 70.8288 26.8987 70.5668 27.0229C70.3049 27.147 70.0205 27.2168 69.7308 27.228ZM91.6974 17.2485H87.6624V28.5069H89.3466V24.2377H91.6974C92.1764 24.2705 92.6571 24.2045 93.1095 24.0437C93.562 23.883 93.9765 23.6309 94.3275 23.3032C94.6784 22.9755 94.9582 22.5791 95.1495 22.1387C95.3408 21.6983 95.4395 21.2233 95.4395 20.7431C95.4395 20.263 95.3408 19.7879 95.1495 19.3475C94.9582 18.9071 94.6784 18.5108 94.3275 18.183C93.9765 17.8553 93.562 17.6033 93.1095 17.4425C92.6571 17.2817 92.1764 17.2157 91.6974 17.2485V17.2485ZM91.6974 22.6525H89.3466V18.8157H91.7334C92.1148 18.8151 92.4879 18.9277 92.8052 19.1394C93.1225 19.3511 93.3698 19.6522 93.5158 20.0046C93.6617 20.357 93.6997 20.7448 93.625 21.1189C93.5502 21.4929 93.3661 21.8363 93.0959 22.1056C92.7348 22.4675 92.2443 22.6706 91.7334 22.6706L91.6974 22.6525V22.6525ZM102.091 21.0403C101.478 21.0027 100.867 21.1456 100.334 21.4513C99.8009 21.7571 99.3691 22.2122 99.0919 22.7606L100.578 23.3821C100.728 23.1111 100.953 22.8894 101.227 22.7439C101.5 22.5984 101.81 22.5354 102.118 22.5625C102.332 22.5373 102.549 22.555 102.756 22.6145C102.963 22.6741 103.156 22.7743 103.323 22.9093C103.491 23.0444 103.63 23.2115 103.732 23.4009C103.835 23.5903 103.898 23.7983 103.919 24.0126V24.1206C103.378 23.836 102.775 23.6876 102.163 23.6883C100.56 23.6883 98.9208 24.589 98.9208 26.2282C98.9362 26.5767 99.0218 26.9185 99.1723 27.2332C99.3228 27.548 99.5353 27.8291 99.7969 28.0598C100.058 28.291 100.363 28.4673 100.694 28.5781C101.024 28.689 101.374 28.7321 101.722 28.7051C102.145 28.7287 102.566 28.6394 102.943 28.4462C103.319 28.2531 103.638 27.9632 103.865 27.6062H103.919V28.5069H105.541V24.1747C105.541 22.2022 104.046 21.0584 102.127 21.0584L102.091 21.0403ZM101.884 27.2099C101.335 27.2099 100.569 26.9307 100.569 26.2552C100.569 25.3546 101.524 25.0483 102.37 25.0483C102.905 25.0352 103.434 25.1658 103.901 25.4266C103.845 25.9157 103.613 26.3678 103.249 26.699C102.884 27.0302 102.412 27.2181 101.92 27.228L101.884 27.2099V27.2099ZM111.449 21.3015L109.522 26.1832H109.468L107.468 21.3015H105.667L108.666 28.1286L106.955 31.9204H108.756L113.323 21.3015H111.449V21.3015ZM96.3178 28.5069H97.9931V17.2485H96.3178V28.5069Z" fill="white"/>
<path d="M9.40281 8.27691C9.11571 8.63183 8.97406 9.08251 9.00651 9.53785V29.4607C8.97587 29.9204 9.12801 30.3736 9.42983 30.7216L9.49287 30.7937L20.6252 19.6344V19.3642L9.46585 8.21387L9.40281 8.27691Z" fill="url(#paint0_linear_1_1017)"/>
<path d="M24.3178 23.3543L20.625 19.6345V19.3643L24.3178 15.6445L24.3988 15.6986L28.8203 18.2024C30.0812 18.914 30.0812 20.0848 28.8203 20.8054L24.4168 23.3092L24.3178 23.3543Z" fill="url(#paint1_linear_1_1017)"/>
<path d="M24.4255 23.3008L20.6247 19.5L9.40234 30.7224C9.65685 30.9489 9.98261 31.0792 10.3231 31.0907C10.6637 31.1023 10.9975 30.9942 11.2667 30.7854L24.4247 23.3008" fill="url(#paint2_linear_1_1017)"/>
<path d="M24.4262 15.6988L11.2666 8.22327C10.9991 8.01154 10.6655 7.90088 10.3245 7.91077C9.98355 7.92065 9.65696 8.05044 9.40219 8.27731L20.6254 19.4997L24.4262 15.6988Z" fill="url(#paint3_linear_1_1017)"/>
<path opacity="0.2" d="M24.3175 23.2197L11.2659 30.6503C11.0065 30.8461 10.6903 30.952 10.3652 30.952C10.0402 30.952 9.72402 30.8461 9.46457 30.6503L9.40234 30.7133L9.46539 30.7854C9.72483 30.9812 10.041 31.0871 10.3661 31.0871C10.6911 31.0871 11.0073 30.9812 11.2667 30.7854L24.4247 23.3008L24.3175 23.2197V23.2197Z" fill="black"/>
<path opacity="0.12" d="M9.40342 30.5963C9.11411 30.239 8.97234 29.7847 9.00712 29.3263V29.4614C8.97638 29.9211 9.12854 30.3743 9.43044 30.7224L9.49348 30.6593L9.40342 30.5963ZM28.8219 20.6709L24.3185 23.2198L24.4004 23.3008L28.8219 20.797C29.0829 20.6866 29.3094 20.5079 29.4774 20.2796C29.6454 20.0514 29.7488 19.782 29.7766 19.5C29.7203 19.7563 29.6046 19.9958 29.4387 20.1992C29.2729 20.4025 29.0616 20.5641 28.8219 20.6709V20.6709Z" fill="black"/>
<path opacity="0.25" d="M11.2665 8.34961L28.8206 18.329C29.0603 18.4359 29.2716 18.5974 29.4374 18.8008C29.6032 19.0042 29.719 19.2436 29.7753 19.4999C29.7475 19.2179 29.6441 18.9485 29.4761 18.7203C29.3081 18.4921 29.0817 18.3133 28.8206 18.203L11.2665 8.22352C10.0146 7.50298 9.00586 8.09742 9.00586 9.5385V9.67442C9.00586 8.23334 10.0146 7.6389 11.2665 8.35043V8.34961Z" fill="white"/>
<path d="M37.9262 14.3388H37.2695V12.5375H37.8279C38.0792 12.2647 38.2681 11.9406 38.3817 11.5875C38.4952 11.2345 38.5306 10.861 38.4854 10.4929V7.79092H42.0881V12.5284H42.6916V14.3298H42.0251V13.1949H37.9262V14.3388V14.3388ZM39.179 10.4929C39.2191 11.2164 39.0402 11.9352 38.6656 12.5555H41.3676V8.45742H39.179V10.4929ZM48.1046 12.4924C47.8444 12.7527 47.5355 12.9591 47.1955 13.1C46.8555 13.2408 46.4911 13.3133 46.1231 13.3133C45.7551 13.3133 45.3907 13.2408 45.0507 13.1C44.7107 12.9591 44.4018 12.7527 44.1417 12.4924C43.883 12.2287 43.6797 11.916 43.5436 11.5726C43.4075 11.2293 43.3414 10.8622 43.3491 10.4929C43.3401 10.1243 43.4048 9.75757 43.5394 9.41424C43.6739 9.07091 43.8756 8.75787 44.1326 8.49344C44.3927 8.233 44.7016 8.02638 45.0416 7.88541C45.3816 7.74444 45.7461 7.67188 46.1141 7.67188C46.4822 7.67188 46.8466 7.74444 47.1866 7.88541C47.5266 8.02638 47.8355 8.233 48.0956 8.49344C48.3574 8.75569 48.564 9.06773 48.7033 9.41115C48.8425 9.75457 48.9115 10.1224 48.9062 10.4929C48.917 10.8634 48.8514 11.2321 48.7135 11.5761C48.5756 11.9201 48.3683 12.232 48.1046 12.4924ZM44.655 12.0421C44.8448 12.2392 45.073 12.3952 45.3256 12.5006C45.5781 12.6059 45.8495 12.6583 46.1231 12.6545C46.3969 12.66 46.6689 12.6083 46.9217 12.5029C47.1744 12.3974 47.4024 12.2405 47.5912 12.0421C47.7925 11.8389 47.9499 11.5966 48.0537 11.3301C48.1574 11.0636 48.2054 10.7787 48.1947 10.4929C48.2055 10.2072 48.1576 9.92219 48.0538 9.6557C47.95 9.38922 47.7925 9.1469 47.5912 8.94378C47.4024 8.74541 47.1744 8.58851 46.9216 8.48306C46.6689 8.37762 46.3969 8.32594 46.1231 8.33132C45.8495 8.32753 45.5781 8.37992 45.3256 8.48527C45.073 8.59062 44.8448 8.74667 44.655 8.94378C44.4567 9.14864 44.3018 9.39147 44.1997 9.65768C44.0975 9.92388 44.0502 10.208 44.0606 10.4929C44.0502 10.7779 44.0975 11.062 44.1997 11.3282C44.3018 11.5944 44.4567 11.8372 44.655 12.0421V12.0421ZM52.4008 13.312C52.0289 13.3197 51.6594 13.2519 51.3144 13.1128C50.9694 12.9737 50.6562 12.7662 50.3936 12.5027C50.131 12.2393 49.9245 11.9254 49.7865 11.58C49.6485 11.2346 49.5819 10.8648 49.5907 10.4929C49.5833 10.1162 49.6548 9.74208 49.8006 9.39462C49.9464 9.04717 50.1633 8.73406 50.4373 8.47543C50.6978 8.21184 51.0098 8.00465 51.3537 7.86675C51.6977 7.72885 52.0664 7.66318 52.4368 7.67383C52.8139 7.66316 53.1884 7.73876 53.5318 7.89485C53.8752 8.05094 54.1784 8.2834 54.4183 8.5745L53.941 9.04285C53.764 8.81536 53.5351 8.63364 53.2733 8.51297C53.0116 8.39229 52.7247 8.33618 52.4368 8.34934C52.1596 8.34226 51.8839 8.39217 51.6267 8.49597C51.3695 8.59977 51.1364 8.75525 50.9417 8.95279C50.7349 9.15162 50.5713 9.39107 50.4614 9.65611C50.3515 9.92116 50.2976 10.2061 50.3031 10.4929C50.2847 10.9203 50.3985 11.343 50.629 11.7034C50.8594 12.0638 51.1954 12.3445 51.591 12.5072C51.8481 12.612 52.1232 12.6619 52.4016 12.6545C52.7157 12.6531 53.0255 12.5821 53.3088 12.4466C53.5921 12.3111 53.8418 12.1145 54.04 11.871L54.5264 12.3483C54.2797 12.644 53.9726 12.8835 53.6257 13.0508C53.2425 13.2302 52.8233 13.3194 52.4008 13.312V13.312ZM57.3553 13.1949H56.6602V8.45742H55.1478V7.79092H58.8578V8.45742H57.3537V13.1949H57.3553ZM63.6322 7.79092L61.5877 12.3483C61.5379 12.531 61.4491 12.7006 61.3274 12.8456C61.2057 12.9905 61.0539 13.1073 60.8826 13.1878C60.7113 13.2683 60.5245 13.3107 60.3352 13.3119C60.1459 13.3131 59.9587 13.2732 59.7863 13.1949L59.9664 12.5555C60.0767 12.6174 60.2003 12.6514 60.3267 12.6545C60.46 12.6612 60.5921 12.6266 60.705 12.5555C60.8147 12.4646 60.8982 12.3467 60.9482 12.2132L61.1463 11.7809L59.327 7.79092H60.1466L61.4796 10.8892L62.8126 7.79092H63.6322ZM64.4158 13.1949V7.79092H68.3247V13.1949H67.6312V8.45742H65.1093V13.1949H64.4158V13.1949ZM69.5586 13.1949V7.79092H70.2521V10.1056H72.9541V7.79092H73.6566V13.1949H72.9541V10.7541H70.2521V13.1949H69.5586ZM79.3129 12.4924C78.9867 12.8187 78.5849 13.0594 78.1433 13.193C77.7017 13.3266 77.2339 13.3491 76.7816 13.2583C76.3292 13.1676 75.9063 12.9664 75.5504 12.6728C75.1945 12.3792 74.9166 12.0022 74.7415 11.5754C74.6036 11.2316 74.5378 10.8632 74.5483 10.4929C74.5378 10.1224 74.6036 9.75373 74.7416 9.40975C74.8797 9.06577 75.087 8.75387 75.3507 8.49344C75.6101 8.2335 75.9182 8.02726 76.2573 7.88654C76.5965 7.74583 76.9601 7.67339 77.3273 7.67339C77.6945 7.67339 78.0581 7.74583 78.3972 7.88654C78.7364 8.02726 79.0445 8.2335 79.3039 8.49344C79.5676 8.75387 79.7749 9.06577 79.913 9.40975C80.051 9.75373 80.1168 10.1224 80.1063 10.4929C80.118 10.8628 80.0536 11.2311 79.9171 11.575C79.7806 11.919 79.575 12.2312 79.3129 12.4924V12.4924ZM75.8633 12.0421C76.052 12.2406 76.28 12.3976 76.5328 12.503C76.7856 12.6085 77.0575 12.6601 77.3314 12.6545C77.605 12.6584 77.8765 12.6061 78.129 12.5007C78.3816 12.3954 78.6098 12.2393 78.7995 12.0421C78.9978 11.8372 79.1526 11.5944 79.2548 11.3282C79.3569 11.062 79.4042 10.7779 79.3939 10.4929C79.4043 10.208 79.357 9.92388 79.2548 9.65768C79.1527 9.39147 78.9978 9.14864 78.7995 8.94378C78.6097 8.74667 78.3815 8.59062 78.129 8.48527C77.8764 8.37992 77.605 8.32753 77.3314 8.33132C77.0576 8.32594 76.7856 8.37762 76.5329 8.48306C76.2801 8.58851 76.0521 8.74541 75.8633 8.94378C75.662 9.14696 75.5047 9.38929 75.4009 9.65576C75.2971 9.92223 75.2491 10.2072 75.2598 10.4929C75.249 10.7787 75.2969 11.0637 75.4007 11.3302C75.5045 11.5966 75.662 11.839 75.8633 12.0421V12.0421ZM82.9426 13.1949V7.79092H84.897C85.3022 7.78685 85.6942 7.93466 85.9958 8.20523C86.1464 8.3358 86.2664 8.49788 86.3473 8.67999C86.4282 8.8621 86.4681 9.05977 86.4642 9.25901C86.4658 9.50138 86.397 9.73964 86.266 9.94352C86.133 10.1371 85.9491 10.2901 85.7346 10.3857C85.9934 10.4716 86.2194 10.6346 86.3831 10.8532C86.5551 11.071 86.6468 11.3412 86.6443 11.6188C86.6486 11.8264 86.6073 12.0324 86.5233 12.2222C86.4392 12.4121 86.3145 12.5812 86.158 12.7176C85.8454 13.0087 85.4321 13.1672 85.0051 13.1597L82.9426 13.1949ZM83.6361 10.1056H84.897C85.015 10.1126 85.1331 10.0927 85.2423 10.0475C85.3515 10.0022 85.449 9.93281 85.5275 9.84445C85.6799 9.69458 85.7673 9.49076 85.7707 9.27703C85.7789 9.0625 85.7052 8.85289 85.5635 8.69159C85.4875 8.608 85.394 8.5421 85.2898 8.49853C85.1855 8.45495 85.073 8.43477 84.9601 8.4394H83.6361V10.1056ZM83.6361 12.5293H85.0321C85.1556 12.5343 85.2787 12.5118 85.3924 12.4634C85.5062 12.4149 85.6077 12.3418 85.6896 12.2492C85.8451 12.0831 85.932 11.8643 85.9328 11.6368C85.9287 11.4612 85.8734 11.2905 85.7738 11.1458C85.6742 11.0011 85.5345 10.8886 85.3719 10.8221C85.2558 10.774 85.1308 10.7508 85.0051 10.7541H83.6361V12.5284V12.5293Z" fill="white" stroke="white" stroke-width="0.163758" stroke-miterlimit="10"/>
<defs>
<linearGradient id="paint0_linear_1_1017" x1="19.6344" y1="9.3307" x2="4.52117" y2="24.444" gradientUnits="userSpaceOnUse">
<stop stop-color="#00A0FF"/>
<stop offset="0.01" stop-color="#00A1FF"/>
<stop offset="0.26" stop-color="#00BEFF"/>
<stop offset="0.51" stop-color="#00D2FF"/>
<stop offset="0.76" stop-color="#00DFFF"/>
<stop offset="1" stop-color="#00E3FF"/>
</linearGradient>
<linearGradient id="paint1_linear_1_1017" x1="30.4693" y1="19.4994" x2="8.6821" y2="19.4994" gradientUnits="userSpaceOnUse">
<stop stop-color="#FFE000"/>
<stop offset="0.41" stop-color="#FFBD00"/>
<stop offset="0.78" stop-color="#FFA500"/>
<stop offset="1" stop-color="#FF9C00"/>
</linearGradient>
<linearGradient id="paint2_linear_1_1017" x1="22.363" y1="21.5715" x2="1.86373" y2="42.0618" gradientUnits="userSpaceOnUse">
<stop stop-color="#FF3A44"/>
<stop offset="1" stop-color="#C31162"/>
</linearGradient>
<linearGradient id="paint3_linear_1_1017" x1="6.5749" y1="1.64837" x2="15.7257" y2="10.7992" gradientUnits="userSpaceOnUse">
<stop stop-color="#32A071"/>
<stop offset="0.07" stop-color="#2DA771"/>
<stop offset="0.48" stop-color="#15CF74"/>
<stop offset="0.8" stop-color="#06E775"/>
<stop offset="1" stop-color="#00F076"/>
</linearGradient>
</defs>
</svg>
