<svg width="24" height="24" viewBox="0 0 24 24" fill="none" xmlns="http://www.w3.org/2000/svg">
<path d="M12.3366 6.00781C9.02828 6.00781 6.34985 8.68915 6.34985 11.9947C6.34985 15.3031 9.03119 17.9815 12.3366 17.9815C15.6451 17.9815 18.3235 15.3002 18.3235 11.9947C18.3235 8.68624 15.6421 6.00781 12.3366 6.00781ZM12.3366 15.8806C10.1891 15.8806 8.45079 14.1413 8.45079 11.9947C8.45079 9.84802 10.1901 8.10875 12.3366 8.10875C14.4833 8.10875 16.2225 9.84802 16.2225 11.9947C16.2235 14.1413 14.4842 15.8806 12.3366 15.8806Z" fill="white" fill-opacity="0.75"/>
<path d="M17.1443 0.406665C14.9977 0.306528 9.68064 0.311389 7.53207 0.406665C5.64405 0.495136 3.97866 0.9511 2.63605 2.29371C0.392201 4.53756 0.679002 7.56112 0.679002 11.9954C0.679002 16.5336 0.426228 19.4872 2.63605 21.697C4.88865 23.9486 7.95595 23.654 12.3377 23.654C16.8332 23.654 18.3848 23.657 19.9744 23.0415C22.1356 22.2025 23.7669 20.2708 23.9264 16.801C24.0275 14.6534 24.0217 9.33734 23.9264 7.18876C23.7339 3.09286 21.5357 0.608884 17.1443 0.406665ZM20.5421 20.2124C19.0712 21.6834 17.0305 21.5521 12.3095 21.5521C7.44846 21.5521 5.49919 21.6241 4.07686 20.1978C2.43869 18.5675 2.73521 15.9493 2.73521 11.9798C2.73521 6.60836 2.18397 2.73995 7.57485 2.46385C8.81344 2.4201 9.17802 2.40552 12.2959 2.40552L12.3396 2.43468C17.5205 2.43468 21.5853 1.89219 21.8293 7.2821C21.8848 8.51194 21.8974 8.88137 21.8974 11.9944C21.8964 16.799 21.9878 18.76 20.5421 20.2124Z" fill="white" fill-opacity="0.75"/>
<path d="M18.5633 7.1708C19.336 7.1708 19.9623 6.54445 19.9623 5.7718C19.9623 4.99916 19.336 4.3728 18.5633 4.3728C17.7907 4.3728 17.1643 4.99916 17.1643 5.7718C17.1643 6.54445 17.7907 7.1708 18.5633 7.1708Z" fill="white" fill-opacity="0.75"/>
</svg>
