<svg width="18" height="14" viewBox="0 0 18 14" fill="none" xmlns="http://www.w3.org/2000/svg">
<path d="M11.3001 9.72666H6.70276V1.60583H11.3002L11.3001 9.72666Z" fill="#FF5F00"/>
<path d="M6.99363 5.66601C6.99363 4.0187 7.77835 2.55127 9.00031 1.6056C8.07535 0.888714 6.93132 0.499638 5.7534 0.501348C2.85175 0.501348 0.499634 2.81361 0.499634 5.66601C0.499634 8.5184 2.85175 10.8307 5.7534 10.8307C6.93135 10.8324 8.07542 10.4433 9.0004 9.72642C7.77852 8.78091 6.99363 7.3134 6.99363 5.66601Z" fill="#EB001B"/>
<path d="M17.5008 5.66601C17.5008 8.5184 15.1487 10.8307 12.2471 10.8307C11.069 10.8324 9.92479 10.4433 8.99963 9.72642C10.2219 8.78074 11.0067 7.3134 11.0067 5.66601C11.0067 4.01862 10.2219 2.55127 8.99963 1.6056C9.92477 0.888736 11.0689 0.499668 12.247 0.501348C15.1486 0.501348 17.5007 2.81361 17.5007 5.66601" fill="#F79E1B"/>
<path d="M16.2844 13.321V13.3544H16.3161C16.322 13.3545 16.3279 13.353 16.3331 13.3502C16.3352 13.3487 16.3368 13.3468 16.3379 13.3446C16.3391 13.3423 16.3396 13.3399 16.3395 13.3374C16.3396 13.3349 16.339 13.3325 16.3379 13.3303C16.3368 13.3282 16.3351 13.3263 16.3331 13.3249C16.328 13.3219 16.3221 13.3204 16.3161 13.3207H16.2844V13.321ZM16.3164 13.2974C16.33 13.2965 16.3435 13.3004 16.3545 13.3082C16.3589 13.3118 16.3624 13.3163 16.3648 13.3215C16.3671 13.3266 16.3681 13.3322 16.3679 13.3378C16.3681 13.3426 16.3672 13.3474 16.3654 13.3519C16.3635 13.3564 16.3607 13.3605 16.3571 13.3638C16.3486 13.3711 16.338 13.3754 16.3267 13.3762L16.3692 13.4239H16.3365L16.2974 13.3766H16.2847V13.4239H16.2574V13.2974H16.3169L16.3164 13.2974ZM16.3079 13.4675C16.3223 13.4676 16.3365 13.4648 16.3497 13.4591C16.3624 13.4537 16.3739 13.4461 16.3837 13.4365C16.3935 13.4269 16.4013 13.4155 16.4067 13.403C16.4179 13.3766 16.4179 13.3468 16.4067 13.3203C16.4012 13.3079 16.3934 13.2966 16.3837 13.2869C16.3739 13.2773 16.3623 13.2697 16.3497 13.2643C16.3364 13.2589 16.3222 13.2563 16.3079 13.2564C16.2934 13.2563 16.2789 13.259 16.2654 13.2643C16.2525 13.2695 16.2407 13.2772 16.2307 13.2869C16.2156 13.3021 16.2055 13.3213 16.2014 13.342C16.1974 13.3628 16.1997 13.3843 16.208 13.4039C16.2131 13.4164 16.2209 13.4278 16.2307 13.4373C16.2407 13.447 16.2525 13.4547 16.2654 13.4599C16.2789 13.4656 16.2933 13.4684 16.3079 13.4683V13.4675ZM16.3079 13.226C16.3453 13.226 16.3812 13.2404 16.4078 13.2661C16.4207 13.2785 16.4309 13.2932 16.4379 13.3095C16.4452 13.3262 16.4489 13.3442 16.4489 13.3623C16.4489 13.3805 16.4452 13.3985 16.4379 13.4152C16.4307 13.4313 16.4205 13.446 16.4078 13.4585C16.3948 13.4708 16.3796 13.4807 16.363 13.4878C16.3456 13.495 16.3269 13.4987 16.3079 13.4986C16.2888 13.4988 16.2698 13.4951 16.2522 13.4878C16.2354 13.4809 16.2201 13.471 16.207 13.4585C16.1943 13.4456 16.1843 13.4304 16.1774 13.4137C16.1701 13.397 16.1664 13.3791 16.1664 13.3609C16.1664 13.3427 16.1701 13.3248 16.1774 13.3081C16.1844 13.2918 16.1946 13.2771 16.2075 13.2647C16.2203 13.252 16.2357 13.2421 16.2526 13.2355C16.2702 13.2282 16.2892 13.2245 16.3084 13.2246L16.3079 13.226ZM3.29273 12.7378C3.29273 12.4968 3.45338 12.2988 3.71595 12.2988C3.96687 12.2988 4.13619 12.4883 4.13619 12.7378C4.13619 12.9874 3.96687 13.1769 3.71595 13.1769C3.45338 13.1769 3.29273 12.9789 3.29273 12.7378ZM4.42221 12.7378V12.0519H4.11885V12.219C4.02263 12.0955 3.87668 12.0181 3.67821 12.0181C3.28721 12.0181 2.98036 12.3195 2.98036 12.7382C2.98036 13.1568 3.28704 13.4583 3.67821 13.4583C3.8766 13.4583 4.02263 13.3807 4.11885 13.2573V13.4239H4.42187V12.7378H4.42221ZM14.6725 12.7378C14.6725 12.4968 14.8332 12.2988 15.0958 12.2988C15.347 12.2988 15.5161 12.4883 15.5161 12.7378C15.5161 12.9874 15.347 13.1769 15.0958 13.1769C14.8333 13.1769 14.6725 12.9789 14.6725 12.7378ZM15.8024 12.7378V11.5013H15.4987V12.219C15.4025 12.0955 15.2566 12.0181 15.0581 12.0181C14.6671 12.0181 14.3602 12.3195 14.3602 12.7382C14.3602 13.1568 14.6669 13.4583 15.0581 13.4583C15.2566 13.4583 15.4025 13.3807 15.4987 13.2573V13.4239H15.8024V12.7378ZM8.18737 12.2847C8.38287 12.2847 8.50842 12.4052 8.54046 12.6173H7.8166C7.84899 12.4193 7.9713 12.2847 8.18746 12.2847H8.18737ZM8.19349 12.0173C7.78464 12.0173 7.49862 12.3097 7.49862 12.7374C7.49862 13.1735 7.79612 13.4575 8.21381 13.4575C8.42393 13.4575 8.61637 13.406 8.78569 13.2654L8.63702 13.0444C8.52006 13.1363 8.37114 13.1878 8.23115 13.1878C8.03565 13.1878 7.85766 13.0989 7.81388 12.852H8.84978C8.85275 12.8149 8.85581 12.7774 8.85581 12.7373C8.85275 12.3098 8.58381 12.0172 8.19332 12.0172L8.19349 12.0173ZM11.856 12.7373C11.856 12.4963 12.0166 12.2983 12.2792 12.2983C12.5301 12.2983 12.6994 12.4878 12.6994 12.7373C12.6994 12.9869 12.5301 13.1764 12.2792 13.1764C12.0166 13.1764 11.8559 12.9784 11.8559 12.7373H11.856ZM12.9854 12.7373V12.0519H12.6822V12.219C12.5856 12.0955 12.44 12.0181 12.2415 12.0181C11.8505 12.0181 11.5437 12.3195 11.5437 12.7382C11.5437 13.1568 11.8504 13.4583 12.2415 13.4583C12.44 13.4583 12.5856 13.3807 12.6822 13.2573V13.4239H12.9855V12.7378L12.9854 12.7373ZM10.1428 12.7373C10.1428 13.1533 10.4374 13.4574 10.8871 13.4574C11.0972 13.4574 11.2372 13.4115 11.3886 13.2939L11.2429 13.0529C11.129 13.1334 11.0094 13.1764 10.8774 13.1764C10.6352 13.1735 10.4571 13.0014 10.4571 12.7373C10.4571 12.4733 10.6352 12.3013 10.8774 12.2983C11.009 12.2983 11.1286 12.3413 11.2429 12.4218L11.3886 12.1808C11.2369 12.0632 11.0969 12.0172 10.8871 12.0172C10.4374 12.0172 10.1428 12.3213 10.1428 12.7373ZM14.0536 12.0172C13.8786 12.0172 13.7646 12.0977 13.6859 12.2182V12.0519H13.3852V13.4231H13.6889V12.6545C13.6889 12.4276 13.7881 12.3015 13.9864 12.3015C14.0513 12.3006 14.1158 12.3123 14.1761 12.336L14.2696 12.0549C14.2025 12.0289 14.1149 12.0175 14.0535 12.0175L14.0536 12.0172ZM5.92204 12.161C5.77609 12.0664 5.57498 12.0175 5.35313 12.0175C4.9997 12.0175 4.77216 12.184 4.77216 12.4565C4.77216 12.68 4.94156 12.818 5.25351 12.861L5.39682 12.881C5.56317 12.904 5.64171 12.947 5.64171 13.0245C5.64171 13.1305 5.53121 13.191 5.32372 13.191C5.1136 13.191 4.96196 13.125 4.85971 13.0476L4.71716 13.2801C4.88351 13.4005 5.09363 13.458 5.32117 13.458C5.72407 13.458 5.95757 13.2715 5.95757 13.0105C5.95757 12.7694 5.7738 12.6434 5.47018 12.6003L5.32721 12.5799C5.19588 12.5632 5.09065 12.5372 5.09065 12.4453C5.09065 12.3451 5.18985 12.2848 5.35628 12.2848C5.53435 12.2848 5.70673 12.3508 5.79122 12.4023L5.92255 12.1613L5.92204 12.161ZM9.83637 12.0178C9.66136 12.0178 9.54737 12.0982 9.46892 12.2187V12.0519H9.16827V13.4231H9.47164V12.6545C9.47164 12.4276 9.57083 12.3015 9.76914 12.3015C9.83407 12.3006 9.89856 12.3123 9.95886 12.336L10.0524 12.0549C9.98521 12.0289 9.89766 12.0175 9.8362 12.0175L9.83637 12.0178ZM7.24761 12.0519H6.75155V11.6359H6.44487V12.0519H6.16191V12.3245H6.44487V12.95C6.44487 13.2681 6.5705 13.4576 6.92937 13.4576C7.06104 13.4576 7.21268 13.4175 7.3089 13.3516L7.22126 13.0963C7.13074 13.1478 7.03154 13.1738 6.95266 13.1738C6.80102 13.1738 6.75155 13.0819 6.75155 12.9443V12.3247H7.24761V12.0519ZM2.7121 13.4234V12.5629C2.7121 12.2388 2.50198 12.0208 2.16325 12.0178C1.98518 12.0149 1.80149 12.0694 1.67289 12.2618C1.57667 12.1097 1.42503 12.0178 1.21185 12.0178C1.06284 12.0178 0.917239 12.0609 0.803254 12.2214V12.0519H0.499634V13.4231H0.805634V12.6628C0.805634 12.4248 0.939934 12.2983 1.14733 12.2983C1.34878 12.2983 1.4507 12.4274 1.4507 12.6598V13.4229H1.75738V12.6627C1.75738 12.4246 1.89737 12.2981 2.09874 12.2981C2.30588 12.2981 2.40474 12.4272 2.40474 12.6596V13.4228L2.7121 13.4234Z" fill="black"/>
</svg>
