<svg width="17" height="16" viewBox="0 0 17 16" fill="none" xmlns="http://www.w3.org/2000/svg">
<path d="M2.375 2.27407H2.59831C3.15061 2.27407 3.63728 2.62202 3.79494 3.12959L4.22207 4.55318L6.08392 10.0417L12.2223 9.45749C12.9139 9.32423 13.4687 8.82962 13.6577 8.17789L14.625 4.55318M9.31667 1.875V5.86571M7.275 3.87036H11.3583" stroke="white" stroke-width="1.16667" stroke-linecap="square"/>
<path d="M5.03599 14.125C5.53912 14.125 5.94698 13.7332 5.94698 13.25C5.94698 12.7668 5.53912 12.375 5.03599 12.375C4.53287 12.375 4.125 12.7668 4.125 13.25C4.125 13.7332 4.53287 14.125 5.03599 14.125Z" fill="white"/>
<path d="M12.5473 14.125C13.0505 14.125 13.4583 13.7332 13.4583 13.25C13.4583 12.7668 13.0505 12.375 12.5473 12.375C12.0442 12.375 11.6363 12.7668 11.6363 13.25C11.6363 13.7332 12.0442 14.125 12.5473 14.125Z" fill="white"/>
<path d="M5.03599 14.125C5.53912 14.125 5.94698 13.7332 5.94698 13.25C5.94698 12.7668 5.53912 12.375 5.03599 12.375C4.53287 12.375 4.125 12.7668 4.125 13.25C4.125 13.7332 4.53287 14.125 5.03599 14.125Z" stroke="white" stroke-width="1.16667" stroke-linecap="square"/>
<path d="M12.5473 14.125C13.0505 14.125 13.4583 13.7332 13.4583 13.25C13.4583 12.7668 13.0505 12.375 12.5473 12.375C12.0442 12.375 11.6363 12.7668 11.6363 13.25C11.6363 13.7332 12.0442 14.125 12.5473 14.125Z" stroke="white" stroke-width="1.16667" stroke-linecap="square"/>
</svg>
