<svg width="32" height="24" viewBox="0 0 32 24" fill="none" xmlns="http://www.w3.org/2000/svg">
<path d="M30.5677 4.41901L30.5686 4.42241C30.8861 5.59557 31.0491 7.46918 31.1283 9.10859C31.1673 9.916 31.1852 10.6461 31.1934 11.1744C31.1974 11.4384 31.1991 11.6515 31.1997 11.7981C31.2 11.8715 31.2 11.9281 31.2 11.9662L31.1999 12.0091L31.1999 12.0197L31.1999 12.0221L31.1999 12.0226L31.1999 12.0227V12.0266V12.0267V12.0267L31.1999 12.0272L31.1999 12.0297L31.1998 12.0402L31.1997 12.083C31.1996 12.1209 31.1992 12.1774 31.1986 12.2504C31.1973 12.3965 31.1948 12.6087 31.1897 12.8716C31.1795 13.3977 31.1592 14.1249 31.1185 14.9296C31.0361 16.561 30.8735 18.4313 30.5674 19.6097C30.2704 20.7226 29.4029 21.5962 28.3122 21.8939C27.7682 22.0384 26.7451 22.16 25.4497 22.254C24.1748 22.3466 22.7008 22.4088 21.2975 22.4503C19.8956 22.4918 18.5706 22.5125 17.5957 22.5229C17.1084 22.5281 16.709 22.5307 16.4316 22.532C16.2929 22.5326 16.1848 22.533 16.1114 22.5331L16.028 22.5333L16.0069 22.5333L16.0017 22.5333L16.0004 22.5333H16.0002L16.0001 23.3333L16 22.5333H15.9997L15.9985 22.5333L15.9933 22.5333L15.9722 22.5333L15.8891 22.5331C15.816 22.533 15.7081 22.5326 15.5698 22.5319C15.2931 22.5306 14.8946 22.5279 14.4084 22.5225C13.4357 22.5117 12.1134 22.4901 10.7133 22.447C9.31186 22.4038 7.83909 22.3393 6.5635 22.243C5.26555 22.1451 4.23935 22.0186 3.69094 21.8684L3.68974 21.868C2.59783 21.5706 1.72944 20.696 1.43239 19.582C1.1267 18.4183 0.963868 16.549 0.881358 14.9129C0.840693 14.1066 0.82033 13.3769 0.810148 12.8487C0.80506 12.5847 0.802523 12.3715 0.801257 12.2248C0.800625 12.1514 0.80031 12.0947 0.800154 12.0565L0.800019 12.0135L0.800002 12.003L0.8 12.0005L0.8 12V12V11.9999V11.9999L0.8 11.9994L0.800002 11.9969L0.800019 11.9864L0.800154 11.9436C0.80031 11.9056 0.800625 11.8492 0.801257 11.7762C0.802522 11.6301 0.80506 11.4179 0.810147 11.155C0.820328 10.6289 0.840689 9.90163 0.881353 9.09698C0.963801 7.46554 1.12652 5.59531 1.43266 4.41699C1.72984 3.30241 2.62521 2.40239 3.68923 2.10549C4.23368 1.96124 5.256 1.83985 6.54999 1.74587C7.82491 1.65327 9.29893 1.59116 10.7022 1.54964C12.1042 1.50815 13.4291 1.48739 14.404 1.477C14.8913 1.47181 15.2907 1.46922 15.5681 1.46792C15.7068 1.46727 15.815 1.46695 15.8883 1.46679L15.9717 1.46665L15.9928 1.46663L15.998 1.46663L15.9993 1.46663L15.9996 1.46663L15.9997 0.666626L15.9997 1.46663L16 1.46663L16.0013 1.46663L16.0065 1.46663L16.0276 1.46665L16.1109 1.46679C16.1843 1.46696 16.2924 1.4673 16.4311 1.46797C16.7084 1.46932 17.1078 1.47201 17.595 1.47741C18.5698 1.4882 19.8946 1.50978 21.2964 1.55289C22.6995 1.59605 24.1731 1.66058 25.4474 1.75678C26.7447 1.85472 27.7663 1.98114 28.307 2.1308L28.3101 2.13165C29.4024 2.42926 30.2713 3.3044 30.5677 4.41901ZM12.0106 14.5332C12.0106 16.1792 13.7958 17.2051 15.218 16.3764L19.5655 13.8432C20.9779 13.0202 20.9779 10.9796 19.5655 10.1567L15.2179 7.62349C13.7957 6.79482 12.0106 7.82073 12.0106 9.46675V14.5332Z" stroke="white" stroke-opacity="0.75" stroke-width="1.6"/>
</svg>
